<?xml version="1.0" encoding="UTF-8"?>
<svg version="1.1" xmlns="http://www.w3.org/2000/svg" width="500" height="500">
<path d="M0 0 C3.9882888 2.50220667 6.81045352 4.33467689 8.640625 8.7890625 C9.300625 8.7890625 9.960625 8.7890625 10.640625 8.7890625 C26.71455183 46.07530261 27.56986616 93.9058183 19.60620117 133.24926758 C18.76165872 137.50022177 18.23093759 141.46108269 18.640625 145.7890625 C20.09769386 147.6577481 20.09769386 147.6577481 22.140625 148.8515625 C25.56809528 151.47256919 25.56809528 151.47256919 26.328125 154.7890625 C25.47882664 158.49509169 24.02359066 160.84539904 21.640625 163.7890625 C20.980625 163.7890625 20.320625 163.7890625 19.640625 163.7890625 C17.55020617 167.60928621 17.55020617 167.60928621 16.640625 171.7890625 C17.88652379 174.0861884 19.14757011 176.10150343 20.640625 178.2265625 C21.48138655 179.48071902 22.31856412 180.73728476 23.15234375 181.99609375 C23.78342041 182.94669678 23.78342041 182.94669678 24.42724609 183.91650391 C30.76379824 193.69544857 37.08027031 204.84829576 36.640625 216.7890625 C34.660625 216.1290625 32.680625 215.4690625 30.640625 214.7890625 C30.640625 218.38993199 31.98015551 221.84076452 32.953125 225.2890625 C33.2948877 226.52245361 33.2948877 226.52245361 33.64355469 227.78076172 C34.78415624 231.87155751 36.0040062 235.89907673 37.390625 239.9140625 C39.79896216 247.75484199 40.66871778 257.84569912 38.640625 265.7890625 C34.765625 264.9140625 34.765625 264.9140625 33.640625 263.7890625 C34.13336523 266.77213852 34.63386835 269.75197488 35.17578125 272.7265625 C37.64951958 287.09256879 38.93590695 305.85818181 30.640625 318.7890625 C29.320625 319.1190625 28.000625 319.4490625 26.640625 319.7890625 C24.660625 317.4790625 22.680625 315.1690625 20.640625 312.7890625 C20.27710938 313.96082031 19.91359375 315.13257813 19.5390625 316.33984375 C15.66781154 328.5634066 11.26575297 338.88180734 3.140625 348.9140625 C2.68985596 349.48358643 2.23908691 350.05311035 1.7746582 350.63989258 C-1.40794589 354.39112654 -3.5471026 355.28750171 -8.359375 355.7890625 C-10.16107373 358.09224826 -10.16107373 358.09224826 -11.19140625 359.92578125 C-17.26583554 369.61642597 -27.06753323 377.99022719 -37.359375 382.7890625 C-40.359375 380.7890625 -40.359375 380.7890625 -41.046875 378.6640625 C-41.15 378.0453125 -41.253125 377.4265625 -41.359375 376.7890625 C-41.79765625 377.26214844 -42.2359375 377.73523438 -42.6875 378.22265625 C-48.39192643 384.1705643 -54.66356369 389.00634013 -61.359375 393.7890625 C-62.16890625 394.38203125 -62.9784375 394.975 -63.8125 395.5859375 C-69.39387649 399.52802859 -75.38275575 403.19483997 -82.421875 402.4765625 C-83.06125 402.2496875 -83.700625 402.0228125 -84.359375 401.7890625 C-84.689375 400.7990625 -85.019375 399.8090625 -85.359375 398.7890625 C-86.2875 399.4490625 -87.215625 400.1090625 -88.171875 400.7890625 C-91.359375 402.7890625 -91.359375 402.7890625 -94.359375 402.7890625 C-94.359375 403.4490625 -94.359375 404.1090625 -94.359375 404.7890625 C-99.01434168 406.86831989 -103.67988251 408.91912752 -108.36474609 410.93017578 C-109.94674229 411.61138296 -111.52321971 412.30540445 -113.09765625 413.00390625 C-138.93190181 423.53210125 -167.78732001 421.66082089 -193.359375 411.7890625 C-198.19393533 409.68078908 -202.86245592 407.26981581 -207.50537109 404.77246094 C-210.75793794 403.04723849 -214.06135902 401.42534386 -217.359375 399.7890625 C-217.359375 400.7790625 -217.359375 401.7690625 -217.359375 402.7890625 C-221.62976001 404.22520534 -223.73591196 403.09598217 -227.6640625 401.22265625 C-236.01945481 396.77855628 -243.96085579 391.68748825 -251.359375 385.7890625 C-252.24109375 385.09167969 -253.1228125 384.39429688 -254.03125 383.67578125 C-261.06928879 378.07914871 -261.06928879 378.07914871 -262.359375 376.7890625 C-263.019375 378.1090625 -263.679375 379.4290625 -264.359375 380.7890625 C-269.22022183 381.34819516 -271.72212797 379.62438952 -275.671875 376.9140625 C-276.74050781 376.19476563 -277.80914062 375.47546875 -278.91015625 374.734375 C-279.71839844 374.09242188 -280.52664063 373.45046875 -281.359375 372.7890625 C-281.359375 372.1290625 -281.359375 371.4690625 -281.359375 370.7890625 C-282.08125 370.55832031 -282.803125 370.32757813 -283.546875 370.08984375 C-286.89831952 368.53980066 -288.80787112 366.63570795 -291.359375 363.9765625 C-292.184375 363.12449219 -293.009375 362.27242188 -293.859375 361.39453125 C-294.684375 360.53472656 -295.509375 359.67492187 -296.359375 358.7890625 C-298.0247776 357.12113273 -299.69136587 355.45438562 -301.359375 353.7890625 C-313.62022545 341.47926654 -319.35374775 327.40187445 -323.359375 310.7890625 C-323.93945312 311.6553125 -323.93945312 311.6553125 -324.53125 312.5390625 C-325.05203125 313.2815625 -325.5728125 314.0240625 -326.109375 314.7890625 C-326.61984375 315.5315625 -327.1303125 316.2740625 -327.65625 317.0390625 C-328.49929688 317.9053125 -328.49929688 317.9053125 -329.359375 318.7890625 C-330.679375 318.7890625 -331.999375 318.7890625 -333.359375 318.7890625 C-339.54969286 302.71226611 -340.89831023 288.34294326 -337.796875 271.328125 C-337.27447231 268.72573688 -337.27447231 268.72573688 -337.359375 265.7890625 C-337.689375 266.4490625 -338.019375 267.1090625 -338.359375 267.7890625 C-339.349375 267.7890625 -340.339375 267.7890625 -341.359375 267.7890625 C-341.84395467 254.77271412 -341.09612583 243.28065236 -337.359375 230.7890625 C-337.13491699 230.03415527 -336.91045898 229.27924805 -336.67919922 228.50146484 C-335.29978769 223.91017405 -333.8551113 219.34370213 -332.359375 214.7890625 C-334.669375 215.1190625 -336.979375 215.4490625 -339.359375 215.7890625 C-340.21259002 201.39379375 -328.40703865 182.98914113 -319.35546875 172.26953125 C-318.08025925 170.67161554 -318.08025925 170.67161554 -318.359375 167.7890625 C-319.019375 167.7890625 -319.679375 167.7890625 -320.359375 167.7890625 C-320.359375 167.1290625 -320.359375 166.4690625 -320.359375 165.7890625 C-321.019375 165.7890625 -321.679375 165.7890625 -322.359375 165.7890625 C-322.359375 165.1290625 -322.359375 164.4690625 -322.359375 163.7890625 C-323.019375 163.7890625 -323.679375 163.7890625 -324.359375 163.7890625 C-329.28245192 155.94290865 -329.28245192 155.94290865 -328.359375 151.7890625 C-326.31512962 149.81295864 -325.2416925 148.7890625 -322.359375 148.7890625 C-322.359375 148.1290625 -322.359375 147.4690625 -322.359375 146.7890625 C-321.699375 146.7890625 -321.039375 146.7890625 -320.359375 146.7890625 C-320.52542236 145.75688599 -320.52542236 145.75688599 -320.69482422 144.70385742 C-327.11552437 104.55276735 -335.49417834 45.01450778 -312.359375 8.4140625 C-309.46200064 4.63487855 -306.63177472 1.50666241 -301.984375 0.0390625 C-291.82421243 -0.92857203 -284.8436075 1.21927035 -276.79296875 7.38671875 C-276.31988281 7.84949219 -275.84679687 8.31226562 -275.359375 8.7890625 C-275.359375 9.4490625 -275.359375 10.1090625 -275.359375 10.7890625 C-274.699375 10.7890625 -274.039375 10.7890625 -273.359375 10.7890625 C-273.359375 11.4490625 -273.359375 12.1090625 -273.359375 12.7890625 C-272.369375 13.1190625 -271.379375 13.4490625 -270.359375 13.7890625 C-270.359375 14.4490625 -270.359375 15.1090625 -270.359375 15.7890625 C-268.874375 16.2840625 -268.874375 16.2840625 -267.359375 16.7890625 C-262.359375 22.25417878 -262.359375 22.25417878 -262.359375 24.7890625 C-261.699375 24.7890625 -261.039375 24.7890625 -260.359375 24.7890625 C-260.359375 25.4490625 -260.359375 26.1090625 -260.359375 26.7890625 C-259.699375 26.7890625 -259.039375 26.7890625 -258.359375 26.7890625 C-256.85984584 28.63622318 -255.43416413 30.54368404 -254.046875 32.4765625 C-251.06736818 36.61954397 -248.02389285 40.24032721 -244.359375 43.7890625 C-239.60474862 48.87338925 -235.07739142 54.09917504 -230.734375 59.5390625 C-227.22162999 63.83779176 -223.90340266 67.59276248 -219.359375 70.7890625 C-218.60269531 71.41683594 -217.84601563 72.04460937 -217.06640625 72.69140625 C-213.05113335 75.43198934 -209.74465386 77.06475479 -204.77392578 76.49023438 C-198.73362226 75.23516017 -192.86737145 73.39811058 -186.98193359 71.56494141 C-181.85176652 70.04719136 -176.67572623 69.34450218 -171.359375 68.7890625 C-170.35777344 68.67949219 -169.35617188 68.56992188 -168.32421875 68.45703125 C-145.97117277 66.37961062 -122.48843973 67.46701927 -101.14453125 74.91015625 C-96.91501326 76.24485688 -93.5899293 76.09337077 -89.359375 74.7890625 C-86.58882657 73.14680988 -84.0687273 71.35440206 -81.5234375 69.3828125 C-79.359375 67.7890625 -79.359375 67.7890625 -76.359375 66.7890625 C-76.359375 66.1290625 -76.359375 65.4690625 -76.359375 64.7890625 C-75.699375 64.7890625 -75.039375 64.7890625 -74.359375 64.7890625 C-74.359375 64.1290625 -74.359375 63.4690625 -74.359375 62.7890625 C-73.699375 62.7890625 -73.039375 62.7890625 -72.359375 62.7890625 C-72.03839844 61.75845703 -72.03839844 61.75845703 -71.7109375 60.70703125 C-69.95421123 56.91433032 -67.50269127 54.19984572 -64.734375 51.1015625 C-63.6497842 49.86307926 -62.56645643 48.62348882 -61.484375 47.3828125 C-60.95328125 46.77566406 -60.4221875 46.16851562 -59.875 45.54296875 C-55.79461973 40.8210854 -51.82206999 35.98310498 -48.359375 30.7890625 C-47.699375 30.7890625 -47.039375 30.7890625 -46.359375 30.7890625 C-45.988125 29.95375 -45.988125 29.95375 -45.609375 29.1015625 C-44.13012682 26.36495337 -42.42470061 24.11255381 -40.359375 21.7890625 C-39.699375 21.7890625 -39.039375 21.7890625 -38.359375 21.7890625 C-37.99199219 20.93441406 -37.99199219 20.93441406 -37.6171875 20.0625 C-31.7882929 9.52704455 -12.69222128 -6.51421953 0 0 Z " fill="#F6F1E8" transform="translate(400.359375,60.2109375)"/>
<path d="M0 0 C3.9882888 2.50220667 6.81045352 4.33467689 8.640625 8.7890625 C9.300625 8.7890625 9.960625 8.7890625 10.640625 8.7890625 C26.71455183 46.07530261 27.56986616 93.9058183 19.60620117 133.24926758 C18.76165872 137.50022177 18.23093759 141.46108269 18.640625 145.7890625 C20.09769386 147.6577481 20.09769386 147.6577481 22.140625 148.8515625 C25.56809528 151.47256919 25.56809528 151.47256919 26.328125 154.7890625 C25.47882664 158.49509169 24.02359066 160.84539904 21.640625 163.7890625 C20.980625 163.7890625 20.320625 163.7890625 19.640625 163.7890625 C17.55020617 167.60928621 17.55020617 167.60928621 16.640625 171.7890625 C17.88652379 174.0861884 19.14757011 176.10150343 20.640625 178.2265625 C21.48138655 179.48071902 22.31856412 180.73728476 23.15234375 181.99609375 C23.78342041 182.94669678 23.78342041 182.94669678 24.42724609 183.91650391 C30.76379824 193.69544857 37.08027031 204.84829576 36.640625 216.7890625 C34.660625 216.1290625 32.680625 215.4690625 30.640625 214.7890625 C30.640625 218.38993199 31.98015551 221.84076452 32.953125 225.2890625 C33.2948877 226.52245361 33.2948877 226.52245361 33.64355469 227.78076172 C34.78415624 231.87155751 36.0040062 235.89907673 37.390625 239.9140625 C39.79896216 247.75484199 40.66871778 257.84569912 38.640625 265.7890625 C34.765625 264.9140625 34.765625 264.9140625 33.640625 263.7890625 C34.13336523 266.77213852 34.63386835 269.75197488 35.17578125 272.7265625 C37.64951958 287.09256879 38.93590695 305.85818181 30.640625 318.7890625 C29.320625 319.1190625 28.000625 319.4490625 26.640625 319.7890625 C24.660625 317.4790625 22.680625 315.1690625 20.640625 312.7890625 C20.27710938 313.96082031 19.91359375 315.13257813 19.5390625 316.33984375 C15.66781154 328.5634066 11.26575297 338.88180734 3.140625 348.9140625 C2.68985596 349.48358643 2.23908691 350.05311035 1.7746582 350.63989258 C-1.40794589 354.39112654 -3.5471026 355.28750171 -8.359375 355.7890625 C-10.16107373 358.09224826 -10.16107373 358.09224826 -11.19140625 359.92578125 C-17.26583554 369.61642597 -27.06753323 377.99022719 -37.359375 382.7890625 C-40.359375 380.7890625 -40.359375 380.7890625 -41.046875 378.6640625 C-41.15 378.0453125 -41.253125 377.4265625 -41.359375 376.7890625 C-41.79765625 377.26214844 -42.2359375 377.73523438 -42.6875 378.22265625 C-48.39192643 384.1705643 -54.66356369 389.00634013 -61.359375 393.7890625 C-62.16890625 394.38203125 -62.9784375 394.975 -63.8125 395.5859375 C-69.39387649 399.52802859 -75.38275575 403.19483997 -82.421875 402.4765625 C-83.06125 402.2496875 -83.700625 402.0228125 -84.359375 401.7890625 C-84.689375 400.7990625 -85.019375 399.8090625 -85.359375 398.7890625 C-86.2875 399.4490625 -87.215625 400.1090625 -88.171875 400.7890625 C-91.359375 402.7890625 -91.359375 402.7890625 -94.359375 402.7890625 C-94.359375 403.4490625 -94.359375 404.1090625 -94.359375 404.7890625 C-99.01434168 406.86831989 -103.67988251 408.91912752 -108.36474609 410.93017578 C-109.94674229 411.61138296 -111.52321971 412.30540445 -113.09765625 413.00390625 C-138.93190181 423.53210125 -167.78732001 421.66082089 -193.359375 411.7890625 C-198.19393533 409.68078908 -202.86245592 407.26981581 -207.50537109 404.77246094 C-210.75793794 403.04723849 -214.06135902 401.42534386 -217.359375 399.7890625 C-217.359375 400.7790625 -217.359375 401.7690625 -217.359375 402.7890625 C-221.62976001 404.22520534 -223.73591196 403.09598217 -227.6640625 401.22265625 C-236.01945481 396.77855628 -243.96085579 391.68748825 -251.359375 385.7890625 C-252.24109375 385.09167969 -253.1228125 384.39429688 -254.03125 383.67578125 C-261.06928879 378.07914871 -261.06928879 378.07914871 -262.359375 376.7890625 C-263.019375 378.1090625 -263.679375 379.4290625 -264.359375 380.7890625 C-269.22022183 381.34819516 -271.72212797 379.62438952 -275.671875 376.9140625 C-276.74050781 376.19476563 -277.80914062 375.47546875 -278.91015625 374.734375 C-279.71839844 374.09242188 -280.52664063 373.45046875 -281.359375 372.7890625 C-281.359375 372.1290625 -281.359375 371.4690625 -281.359375 370.7890625 C-282.08125 370.55832031 -282.803125 370.32757813 -283.546875 370.08984375 C-286.89831952 368.53980066 -288.80787112 366.63570795 -291.359375 363.9765625 C-292.184375 363.12449219 -293.009375 362.27242188 -293.859375 361.39453125 C-294.684375 360.53472656 -295.509375 359.67492187 -296.359375 358.7890625 C-298.0247776 357.12113273 -299.69136587 355.45438562 -301.359375 353.7890625 C-313.62022545 341.47926654 -319.35374775 327.40187445 -323.359375 310.7890625 C-323.93945312 311.6553125 -323.93945312 311.6553125 -324.53125 312.5390625 C-325.05203125 313.2815625 -325.5728125 314.0240625 -326.109375 314.7890625 C-326.61984375 315.5315625 -327.1303125 316.2740625 -327.65625 317.0390625 C-328.49929688 317.9053125 -328.49929688 317.9053125 -329.359375 318.7890625 C-330.679375 318.7890625 -331.999375 318.7890625 -333.359375 318.7890625 C-339.54969286 302.71226611 -340.89831023 288.34294326 -337.796875 271.328125 C-337.27447231 268.72573688 -337.27447231 268.72573688 -337.359375 265.7890625 C-337.689375 266.4490625 -338.019375 267.1090625 -338.359375 267.7890625 C-339.349375 267.7890625 -340.339375 267.7890625 -341.359375 267.7890625 C-341.84395467 254.77271412 -341.09612583 243.28065236 -337.359375 230.7890625 C-337.13491699 230.03415527 -336.91045898 229.27924805 -336.67919922 228.50146484 C-335.29978769 223.91017405 -333.8551113 219.34370213 -332.359375 214.7890625 C-334.669375 215.1190625 -336.979375 215.4490625 -339.359375 215.7890625 C-340.21259002 201.39379375 -328.40703865 182.98914113 -319.35546875 172.26953125 C-318.08025925 170.67161554 -318.08025925 170.67161554 -318.359375 167.7890625 C-319.019375 167.7890625 -319.679375 167.7890625 -320.359375 167.7890625 C-320.359375 167.1290625 -320.359375 166.4690625 -320.359375 165.7890625 C-321.019375 165.7890625 -321.679375 165.7890625 -322.359375 165.7890625 C-322.359375 165.1290625 -322.359375 164.4690625 -322.359375 163.7890625 C-323.019375 163.7890625 -323.679375 163.7890625 -324.359375 163.7890625 C-329.28245192 155.94290865 -329.28245192 155.94290865 -328.359375 151.7890625 C-326.31512962 149.81295864 -325.2416925 148.7890625 -322.359375 148.7890625 C-322.359375 148.1290625 -322.359375 147.4690625 -322.359375 146.7890625 C-321.699375 146.7890625 -321.039375 146.7890625 -320.359375 146.7890625 C-320.52542236 145.75688599 -320.52542236 145.75688599 -320.69482422 144.70385742 C-327.11552437 104.55276735 -335.49417834 45.01450778 -312.359375 8.4140625 C-309.46200064 4.63487855 -306.63177472 1.50666241 -301.984375 0.0390625 C-291.82421243 -0.92857203 -284.8436075 1.21927035 -276.79296875 7.38671875 C-276.31988281 7.84949219 -275.84679687 8.31226562 -275.359375 8.7890625 C-275.359375 9.4490625 -275.359375 10.1090625 -275.359375 10.7890625 C-274.699375 10.7890625 -274.039375 10.7890625 -273.359375 10.7890625 C-273.359375 11.4490625 -273.359375 12.1090625 -273.359375 12.7890625 C-272.369375 13.1190625 -271.379375 13.4490625 -270.359375 13.7890625 C-270.359375 14.4490625 -270.359375 15.1090625 -270.359375 15.7890625 C-268.874375 16.2840625 -268.874375 16.2840625 -267.359375 16.7890625 C-262.359375 22.25417878 -262.359375 22.25417878 -262.359375 24.7890625 C-261.699375 24.7890625 -261.039375 24.7890625 -260.359375 24.7890625 C-260.359375 25.4490625 -260.359375 26.1090625 -260.359375 26.7890625 C-259.699375 26.7890625 -259.039375 26.7890625 -258.359375 26.7890625 C-256.85984584 28.63622318 -255.43416413 30.54368404 -254.046875 32.4765625 C-251.06736818 36.61954397 -248.02389285 40.24032721 -244.359375 43.7890625 C-239.60474862 48.87338925 -235.07739142 54.09917504 -230.734375 59.5390625 C-227.22162999 63.83779176 -223.90340266 67.59276248 -219.359375 70.7890625 C-218.60269531 71.41683594 -217.84601563 72.04460937 -217.06640625 72.69140625 C-213.05113335 75.43198934 -209.74465386 77.06475479 -204.77392578 76.49023438 C-198.73362226 75.23516017 -192.86737145 73.39811058 -186.98193359 71.56494141 C-181.85176652 70.04719136 -176.67572623 69.34450218 -171.359375 68.7890625 C-170.35777344 68.67949219 -169.35617188 68.56992188 -168.32421875 68.45703125 C-145.97117277 66.37961062 -122.48843973 67.46701927 -101.14453125 74.91015625 C-96.91501326 76.24485688 -93.5899293 76.09337077 -89.359375 74.7890625 C-86.58882657 73.14680988 -84.0687273 71.35440206 -81.5234375 69.3828125 C-79.359375 67.7890625 -79.359375 67.7890625 -76.359375 66.7890625 C-76.359375 66.1290625 -76.359375 65.4690625 -76.359375 64.7890625 C-75.699375 64.7890625 -75.039375 64.7890625 -74.359375 64.7890625 C-74.359375 64.1290625 -74.359375 63.4690625 -74.359375 62.7890625 C-73.699375 62.7890625 -73.039375 62.7890625 -72.359375 62.7890625 C-72.03839844 61.75845703 -72.03839844 61.75845703 -71.7109375 60.70703125 C-69.95421123 56.91433032 -67.50269127 54.19984572 -64.734375 51.1015625 C-63.6497842 49.86307926 -62.56645643 48.62348882 -61.484375 47.3828125 C-60.95328125 46.77566406 -60.4221875 46.16851562 -59.875 45.54296875 C-55.79461973 40.8210854 -51.82206999 35.98310498 -48.359375 30.7890625 C-47.699375 30.7890625 -47.039375 30.7890625 -46.359375 30.7890625 C-45.988125 29.95375 -45.988125 29.95375 -45.609375 29.1015625 C-44.13012682 26.36495337 -42.42470061 24.11255381 -40.359375 21.7890625 C-39.699375 21.7890625 -39.039375 21.7890625 -38.359375 21.7890625 C-37.99199219 20.93441406 -37.99199219 20.93441406 -37.6171875 20.0625 C-31.7882929 9.52704455 -12.69222128 -6.51421953 0 0 Z M-307.359375 13.7890625 C-310.56536464 19.47809529 -312.26609858 25.4666025 -313.421875 31.8515625 C-313.58397461 32.73440918 -313.74607422 33.61725586 -313.91308594 34.52685547 C-317.80201225 57.0849202 -319.0392025 79.93237692 -318.359375 102.7890625 C-318.3281958 103.95356934 -318.3281958 103.95356934 -318.29638672 105.14160156 C-317.85973549 119.00446956 -316.50517752 139.2561023 -308.359375 150.7890625 C-307.699375 150.7890625 -307.039375 150.7890625 -306.359375 150.7890625 C-306.359375 151.4490625 -306.359375 152.1090625 -306.359375 152.7890625 C-305.369375 153.7790625 -304.379375 154.7690625 -303.359375 155.7890625 C-307.979375 156.1190625 -312.599375 156.4490625 -317.359375 156.7890625 C-317.359375 157.4490625 -317.359375 158.1090625 -317.359375 158.7890625 C-316.699375 158.7890625 -316.039375 158.7890625 -315.359375 158.7890625 C-315.153125 159.3665625 -314.946875 159.9440625 -314.734375 160.5390625 C-312.50765431 164.18278727 -309.15094098 166.30485548 -305.046875 167.4140625 C-304.2115625 167.5996875 -304.2115625 167.5996875 -303.359375 167.7890625 C-302.864375 168.7790625 -302.864375 168.7790625 -302.359375 169.7890625 C-302.94332031 170.04171875 -303.52726562 170.294375 -304.12890625 170.5546875 C-310.83560556 174.26627591 -315.21316226 181.8022446 -319.296875 188.1015625 C-319.68641357 188.70000977 -320.07595215 189.29845703 -320.47729492 189.91503906 C-322.30326323 192.80700222 -323.8290007 195.37951343 -324.359375 198.7890625 C-319.49041197 198.19286295 -315.03146549 197.21929428 -310.359375 195.7890625 C-310.854375 196.5728125 -311.349375 197.3565625 -311.859375 198.1640625 C-313.52475465 200.57458577 -313.52475465 200.57458577 -313.359375 202.7890625 C-314.349375 203.1190625 -315.339375 203.4490625 -316.359375 203.7890625 C-318.70217468 207.25845438 -320.48881066 211.04793382 -322.359375 214.7890625 C-323.03226563 216.13484375 -323.03226563 216.13484375 -323.71875 217.5078125 C-327.79848426 226.07021775 -331.74744456 235.1735613 -331.359375 244.7890625 C-327.96801434 244.18346238 -326.01645694 242.94794158 -323.359375 240.7890625 C-320.70229306 238.63018342 -318.75073566 237.39466262 -315.359375 236.7890625 C-315.72289062 237.33691406 -316.08640625 237.88476562 -316.4609375 238.44921875 C-327.0687326 255.17689563 -333.98751159 277.30804073 -329.84375 297.2734375 C-329.68390625 297.77359375 -329.5240625 298.27375 -329.359375 298.7890625 C-328.369375 298.7890625 -327.379375 298.7890625 -326.359375 298.7890625 C-325.8334375 297.5825 -325.8334375 297.5825 -325.296875 296.3515625 C-323.35078823 292.3932598 -320.57265655 289.13566613 -317.78515625 285.7421875 C-316.16283783 283.92286195 -316.16283783 283.92286195 -316.359375 281.7890625 C-315.369375 281.7890625 -314.379375 281.7890625 -313.359375 281.7890625 C-313.37508545 282.66006592 -313.3907959 283.53106934 -313.40698242 284.4284668 C-313.45875562 287.72556765 -313.49603228 291.02222364 -313.52416992 294.31958008 C-313.53906238 295.73436387 -313.55938336 297.14910317 -313.58569336 298.5637207 C-313.83058443 312.09035118 -312.1654553 323.87169661 -305.359375 335.7890625 C-304.699375 335.7890625 -304.039375 335.7890625 -303.359375 335.7890625 C-303.111875 334.5928125 -302.864375 333.3965625 -302.609375 332.1640625 C-301.76181738 328.067534 -299.7537669 325.18598434 -297.359375 321.7890625 C-297.10542969 322.83964844 -296.85148437 323.89023437 -296.58984375 324.97265625 C-294.7857946 332.35765279 -292.91922987 339.62146886 -290.359375 346.7890625 C-289.699375 346.7890625 -289.039375 346.7890625 -288.359375 346.7890625 C-287.92625 347.9028125 -287.92625 347.9028125 -287.484375 349.0390625 C-286.53634856 351.35646047 -285.51091589 353.56823365 -284.359375 355.7890625 C-283.699375 355.7890625 -283.039375 355.7890625 -282.359375 355.7890625 C-282.153125 356.4903125 -281.946875 357.1915625 -281.734375 357.9140625 C-279.9759372 361.59079609 -277.55509359 364.26201329 -274.359375 366.7890625 C-273.699375 366.7890625 -273.039375 366.7890625 -272.359375 366.7890625 C-272.359375 360.5190625 -272.359375 354.2490625 -272.359375 347.7890625 C-269.86324565 349.03712717 -269.6356394 349.97898476 -268.484375 352.4765625 C-266.71837122 356.14592591 -264.68903504 359.44017619 -262.359375 362.7890625 C-261.658125 363.9028125 -260.956875 365.0165625 -260.234375 366.1640625 C-259.615625 367.0303125 -258.996875 367.8965625 -258.359375 368.7890625 C-257.699375 368.7890625 -257.039375 368.7890625 -256.359375 368.7890625 C-255.864375 370.2740625 -255.864375 370.2740625 -255.359375 371.7890625 C-253.60539545 373.64262721 -253.60539545 373.64262721 -251.484375 375.4140625 C-250.78570312 376.02507812 -250.08703125 376.63609375 -249.3671875 377.265625 C-247.33801156 378.9748037 -247.33801156 378.9748037 -244.359375 379.7890625 C-243.864375 381.2740625 -243.864375 381.2740625 -243.359375 382.7890625 C-241.47330194 384.10901499 -241.47330194 384.10901499 -239.171875 385.2265625 C-236.31743463 386.72412263 -233.61240427 388.23480115 -230.984375 390.1015625 C-228.45888942 392.0594413 -228.45888942 392.0594413 -225.359375 391.7890625 C-225.029375 388.4890625 -224.699375 385.1890625 -224.359375 381.7890625 C-223.369375 381.4590625 -222.379375 381.1290625 -221.359375 380.7890625 C-221.1325 381.3459375 -220.905625 381.9028125 -220.671875 382.4765625 C-213.31096033 395.44579311 -194.77407787 404.05990928 -181.046875 408.3515625 C-174.77186403 409.95848883 -168.80379926 410.21396959 -162.359375 409.7890625 C-162.359375 410.4490625 -162.359375 411.1090625 -162.359375 411.7890625 C-150.82944627 412.02926935 -139.76381188 411.52924905 -128.359375 409.7890625 C-128.359375 409.1290625 -128.359375 408.4690625 -128.359375 407.7890625 C-127.50085938 407.8303125 -126.64234375 407.8715625 -125.7578125 407.9140625 C-122.11735656 407.78016067 -119.40647512 407.00580921 -115.984375 405.7890625 C-114.92476562 405.4178125 -113.86515625 405.0465625 -112.7734375 404.6640625 C-111.97679687 404.3753125 -111.18015625 404.0865625 -110.359375 403.7890625 C-110.359375 403.1290625 -110.359375 402.4690625 -110.359375 401.7890625 C-109.07160156 401.64791016 -109.07160156 401.64791016 -107.7578125 401.50390625 C-103.95117509 400.70319976 -101.32125049 399.33308979 -97.984375 397.3515625 C-96.92476562 396.73410156 -95.86515625 396.11664063 -94.7734375 395.48046875 C-93.97679687 394.92230469 -93.18015625 394.36414063 -92.359375 393.7890625 C-92.359375 393.1290625 -92.359375 392.4690625 -92.359375 391.7890625 C-91.47958984 391.41974609 -91.47958984 391.41974609 -90.58203125 391.04296875 C-88.01632003 389.59552885 -86.64676462 388.00685149 -84.796875 385.7265625 C-81.68912707 381.89897986 -81.68912707 381.89897986 -78.359375 380.7890625 C-78.029375 384.4190625 -77.699375 388.0490625 -77.359375 391.7890625 C-76.369375 391.7890625 -75.379375 391.7890625 -74.359375 391.7890625 C-74.359375 391.1290625 -74.359375 390.4690625 -74.359375 389.7890625 C-73.823125 389.6859375 -73.286875 389.5828125 -72.734375 389.4765625 C-69.73435456 388.60813553 -67.1214215 387.23285954 -64.359375 385.7890625 C-64.359375 385.1290625 -64.359375 384.4690625 -64.359375 383.7890625 C-63.039375 383.4590625 -61.719375 383.1290625 -60.359375 382.7890625 C-60.359375 382.1290625 -60.359375 381.4690625 -60.359375 380.7890625 C-59.64394531 380.5621875 -58.92851562 380.3353125 -58.19140625 380.1015625 C-54.75444829 378.50871026 -52.69453333 376.48771277 -50.046875 373.7890625 C-49.16386719 372.9021875 -48.28085937 372.0153125 -47.37109375 371.1015625 C-45.14059618 369.04841845 -45.14059618 369.04841845 -45.359375 366.7890625 C-44.699375 366.7890625 -44.039375 366.7890625 -43.359375 366.7890625 C-43.359375 366.1290625 -43.359375 365.4690625 -43.359375 364.7890625 C-42.699375 364.7890625 -42.039375 364.7890625 -41.359375 364.7890625 C-40.988125 363.9846875 -40.616875 363.1803125 -40.234375 362.3515625 C-38.3682412 358.57421921 -35.97601688 355.18951366 -33.56640625 351.7421875 C-32.18413827 349.88817479 -32.18413827 349.88817479 -32.359375 347.7890625 C-31.699375 347.7890625 -31.039375 347.7890625 -30.359375 347.7890625 C-30.359375 354.0590625 -30.359375 360.3290625 -30.359375 366.7890625 C-22.09361327 364.03380859 -16.32376613 352.54442711 -12.35546875 345.1953125 C-9.92579835 340.26344422 -8.78178069 335.1349375 -7.609375 329.7890625 C-7.38894531 328.82355469 -7.16851562 327.85804688 -6.94140625 326.86328125 C-6.40485492 324.50712106 -5.87775147 322.14927535 -5.359375 319.7890625 C-4.54332501 321.7042204 -3.73166868 323.62125084 -2.921875 325.5390625 C-2.46941406 326.60640625 -2.01695312 327.67375 -1.55078125 328.7734375 C-0.61957947 331.1304466 0.1190322 333.31899085 0.640625 335.7890625 C1.300625 335.7890625 1.960625 335.7890625 2.640625 335.7890625 C3.60339759 333.43662758 4.56090998 331.08226631 5.515625 328.7265625 C5.78503906 328.06978516 6.05445313 327.41300781 6.33203125 326.73632812 C9.96808986 317.73486597 10.95353882 310.05601945 10.890625 300.3515625 C10.89835937 299.16240234 10.90609375 297.97324219 10.9140625 296.74804688 C10.89998458 290.40946323 10.53294098 284.84897916 8.640625 278.7890625 C9.300625 278.7890625 9.960625 278.7890625 10.640625 278.7890625 C10.89714844 279.36527344 11.15367187 279.94148438 11.41796875 280.53515625 C13.16947083 283.76396361 15.60210814 286.20056503 18.08203125 288.88671875 C19.640625 290.7890625 19.640625 290.7890625 20.640625 293.7890625 C21.300625 293.7890625 21.960625 293.7890625 22.640625 293.7890625 C23.300625 295.1090625 23.960625 296.4290625 24.640625 297.7890625 C25.300625 297.7890625 25.960625 297.7890625 26.640625 297.7890625 C27.82549614 294.05577805 27.77356858 290.49788631 27.765625 286.6015625 C27.76949219 284.72404297 27.76949219 284.72404297 27.7734375 282.80859375 C27.59323344 274.89626453 26.30994124 267.75943352 23.890625 260.2265625 C23.65085937 259.42798828 23.41109375 258.62941406 23.1640625 257.80664062 C21.62614508 252.94317496 19.67951 248.84180839 16.84594727 244.59790039 C14.94965694 241.75212056 13.31661113 238.76859339 11.640625 235.7890625 C13.74805809 237.05472488 15.85151172 238.32630088 17.953125 239.6015625 C18.54802734 239.95798828 19.14292969 240.31441406 19.75585938 240.68164062 C22.72907355 242.49214534 25.21829043 244.30401376 27.640625 246.7890625 C28.300625 246.7890625 28.960625 246.7890625 29.640625 246.7890625 C29.34058729 238.38800662 26.41121919 231.35281699 23.35205078 223.63916016 C22.35713536 221.05183378 21.48992019 218.42721133 20.640625 215.7890625 C19.980625 215.7890625 19.320625 215.7890625 18.640625 215.7890625 C18.640625 214.4690625 18.640625 213.1490625 18.640625 211.7890625 C17.980625 211.7890625 17.320625 211.7890625 16.640625 211.7890625 C16.2075 210.396875 16.2075 210.396875 15.765625 208.9765625 C14.753125 205.69114583 14.753125 205.69114583 12.640625 202.7890625 C11.980625 202.7890625 11.320625 202.7890625 10.640625 202.7890625 C10.640625 201.1390625 10.640625 199.4890625 10.640625 197.7890625 C14.270625 198.4490625 17.900625 199.1090625 21.640625 199.7890625 C19.39429038 188.55738942 12.49317768 180.79028658 4.640625 172.7890625 C4.08761719 172.1909375 3.53460938 171.5928125 2.96484375 170.9765625 C1.68890737 169.56651951 1.68890737 169.56651951 -0.359375 169.7890625 C-0.359375 168.7990625 -0.359375 167.8090625 -0.359375 166.7890625 C0.465625 166.7271875 1.290625 166.6653125 2.140625 166.6015625 C6.53109136 165.58234709 10.24654051 163.79432585 13.640625 160.7890625 C14.41413956 158.70585018 14.41413956 158.70585018 14.640625 156.7890625 C9.96861295 155.58338197 5.42566208 155.69523824 0.640625 155.7890625 C1.40375 155.0671875 2.166875 154.3453125 2.953125 153.6015625 C16.98961194 138.9122157 14.97879545 111.09248737 14.90136719 92.15234375 C14.8906872 89.05709023 14.90130471 85.96242309 14.9140625 82.8671875 C15.9287262 44.74389409 15.9287262 44.74389409 2.640625 11.0390625 C-1.92518164 7.61470752 -5.67919613 7.39732603 -11.359375 7.7890625 C-20.62504484 11.80049459 -27.39179153 19.73775401 -34.484375 26.7265625 C-35.35557983 27.57806885 -35.35557983 27.57806885 -36.24438477 28.44677734 C-37.65581918 29.85545131 -39.01295143 31.3181264 -40.359375 32.7890625 C-40.359375 33.4490625 -40.359375 34.1090625 -40.359375 34.7890625 C-41.019375 34.7890625 -41.679375 34.7890625 -42.359375 34.7890625 C-43.743795 36.75404572 -45.07141334 38.75954715 -46.359375 40.7890625 C-46.936875 41.5315625 -47.514375 42.2740625 -48.109375 43.0390625 C-49.55312106 44.70187677 -49.55312106 44.70187677 -49.359375 46.7890625 C-50.019375 46.7890625 -50.679375 46.7890625 -51.359375 46.7890625 C-51.359375 47.4490625 -51.359375 48.1090625 -51.359375 48.7890625 C-52.019375 48.7890625 -52.679375 48.7890625 -53.359375 48.7890625 C-55.0958079 50.66095308 -55.0958079 50.66095308 -56.921875 53.1015625 C-57.98535156 54.46087891 -57.98535156 54.46087891 -59.0703125 55.84765625 C-59.82570313 56.81832031 -60.58109375 57.78898437 -61.359375 58.7890625 C-62.91368803 60.75390007 -64.47607377 62.71238138 -66.046875 64.6640625 C-66.75199219 65.54835937 -67.45710938 66.43265625 -68.18359375 67.34375 C-70.359375 69.7890625 -70.359375 69.7890625 -73.12890625 71.984375 C-73.86496094 72.57992187 -74.60101563 73.17546875 -75.359375 73.7890625 C-75.359375 74.4490625 -75.359375 75.1090625 -75.359375 75.7890625 C-76.019375 75.7890625 -76.679375 75.7890625 -77.359375 75.7890625 C-77.359375 76.4490625 -77.359375 77.1090625 -77.359375 77.7890625 C-78.060625 77.8715625 -78.761875 77.9540625 -79.484375 78.0390625 C-82.5023637 78.63435771 -82.5023637 78.63435771 -85.046875 80.7890625 C-90.05705363 83.81407601 -95.20127171 84.33883587 -100.97631836 83.33349609 C-103.67351491 82.62140996 -106.32499155 81.81863741 -108.984375 80.9765625 C-138.67211225 72.35961282 -171.52162876 73.25060536 -200.87890625 83.0234375 C-207.03894493 84.92480377 -211.42592196 83.7674766 -217.0234375 81.0546875 C-223.69350155 77.44080664 -228.67714159 73.74826866 -233.359375 67.7890625 C-234.019375 67.7890625 -234.679375 67.7890625 -235.359375 67.7890625 C-235.75769531 66.91121094 -235.75769531 66.91121094 -236.1640625 66.015625 C-237.39415193 63.72428195 -238.73243555 62.07897306 -240.484375 60.1640625 C-243.95937135 56.28449277 -247.20605505 52.25985961 -250.44140625 48.1796875 C-252.58449417 45.5084659 -254.79633922 42.90890245 -257.046875 40.328125 C-258.28431302 38.87708161 -259.44975154 37.36551535 -260.609375 35.8515625 C-261.186875 35.1709375 -261.764375 34.4903125 -262.359375 33.7890625 C-263.019375 33.7890625 -263.679375 33.7890625 -264.359375 33.7890625 C-264.42125 33.2321875 -264.483125 32.6753125 -264.546875 32.1015625 C-265.69835577 28.82427109 -267.87241745 27.19511478 -270.359375 24.7890625 C-271.184375 23.95246094 -272.009375 23.11585937 -272.859375 22.25390625 C-273.684375 21.41988281 -274.509375 20.58585937 -275.359375 19.7265625 C-276.184375 18.88996094 -277.009375 18.05335937 -277.859375 17.19140625 C-282.38263199 12.38738993 -282.38263199 12.38738993 -288.359375 10.7890625 C-288.359375 10.1290625 -288.359375 9.4690625 -288.359375 8.7890625 C-296.75367503 6.75408067 -301.68511975 7.16288444 -307.359375 13.7890625 Z " fill="#DED2C1" transform="translate(400.359375,60.2109375)"/>
<path d="M0 0 C1.16273438 -0.00708984 2.32546875 -0.01417969 3.5234375 -0.02148438 C12.50587123 0.04456293 19.66260889 1.55879411 27.4375 6.125 C28.56865234 6.78048828 28.56865234 6.78048828 29.72265625 7.44921875 C30.26792969 7.77535156 30.81320312 8.10148437 31.375 8.4375 C31.375 9.0975 31.375 9.7575 31.375 10.4375 C31.98988281 10.68757813 32.60476563 10.93765625 33.23828125 11.1953125 C35.74359433 12.65178336 36.3610275 13.71339622 37.5625 16.3125 C37.88605469 16.99054688 38.20960938 17.66859375 38.54296875 18.3671875 C41.61240576 26.00475378 41.33972274 34.67228158 38.41015625 42.31640625 C32.91657287 53.57306955 22.85668933 60.99491171 11.375 65.4375 C8.28176385 66.10064795 5.55158774 66.33161374 2.375 66.4375 C1.99317997 69.74171182 2.10450585 72.33972144 3.375 75.4375 C7.04853032 78.2512679 11.06574102 79.81567997 15.375 81.4375 C16.18582031 81.7778125 16.99664062 82.118125 17.83203125 82.46875 C26.79886202 85.76829931 38.21028737 86.08354774 47.125 82.5625 C48.5573301 81.88640013 49.97610898 81.18032197 51.375 80.4375 C52.08140625 80.14617187 52.7878125 79.85484375 53.515625 79.5546875 C55.85513141 78.14901768 56.29761126 76.91368337 57.375 74.4375 C58.31667214 73.03037277 59.27616645 71.63506378 60.25 70.25 C63.75891075 65.03773452 66.16831781 59.65848633 68.3671875 53.7890625 C71.765345 44.8063361 71.765345 44.8063361 75.375 42.4375 C77.625 42.6875 77.625 42.6875 79.375 43.4375 C74.67004461 55.59196809 69.16685082 66.95560544 61.375 77.4375 C60.2303125 78.984375 60.2303125 78.984375 59.0625 80.5625 C58.505625 81.18125 57.94875 81.8 57.375 82.4375 C56.715 82.4375 56.055 82.4375 55.375 82.4375 C55.375 83.0975 55.375 83.7575 55.375 84.4375 C53.8786372 85.27449971 52.35104836 86.05583687 50.8125 86.8125 C45.04090189 90.08716559 42.69547298 94.20329619 39.75 100.0234375 C39.29625 100.82007813 38.8425 101.61671875 38.375 102.4375 C37.715 102.4375 37.055 102.4375 36.375 102.4375 C36.41625 103.5925 36.4575 104.7475 36.5 105.9375 C36.45303632 114.82929072 33.63581402 121.77812431 27.62109375 128.35546875 C19.51576952 136.03505878 10.76479026 138.1116915 -0.1875 137.9375 C-1.65219727 137.96070313 -1.65219727 137.96070313 -3.14648438 137.984375 C-12.46212888 137.9345254 -20.72490921 134.80808742 -27.625 128.4375 C-33.26444621 122.58574523 -34.58865112 116.28069218 -35.51269531 108.46582031 C-36.14316082 103.58918076 -37.40483699 101.09139925 -40.625 97.4375 C-40.625 96.4475 -40.625 95.4575 -40.625 94.4375 C-41.285 94.4375 -41.945 94.4375 -42.625 94.4375 C-43.21539062 93.69113281 -43.80578125 92.94476563 -44.4140625 92.17578125 C-46.72913678 89.30852494 -48.94468729 87.65759599 -52 85.625 C-57.00313738 82.08749541 -60.32626051 78.55325009 -63.625 73.4375 C-64.615 72.1071875 -64.615 72.1071875 -65.625 70.75 C-68.15723599 66.55598414 -70.09193949 62.17268562 -72.09765625 57.70703125 C-73.78763162 54.0893602 -75.68920179 50.66383034 -77.7421875 47.2421875 C-78.625 45.4375 -78.625 45.4375 -78.625 42.4375 C-74.86559682 42.94552746 -73.0708499 43.53646404 -70.625 46.4375 C-69.66113281 48.36352539 -69.66113281 48.36352539 -68.828125 50.53515625 C-68.51294922 51.33211914 -68.19777344 52.12908203 -67.87304688 52.95019531 C-67.54369141 53.79163086 -67.21433594 54.63306641 -66.875 55.5 C-62.27806126 66.7722356 -56.63028524 77.65494176 -45.42578125 83.60546875 C-41.56532377 84.75229921 -37.94534474 84.77907245 -33.9375 84.75 C-33.1316748 84.74436035 -32.32584961 84.7387207 -31.49560547 84.73291016 C-25.41073255 84.60897949 -20.24669611 83.86651436 -14.625 81.4375 C-13.02591797 80.83421875 -13.02591797 80.83421875 -11.39453125 80.21875 C-5.35188982 77.92558926 -5.35188982 77.92558926 -1.64453125 73.046875 C-1.39665224 70.76207719 -1.3615776 68.71711696 -1.625 66.4375 C-2.8625 66.39625 -4.1 66.355 -5.375 66.3125 C-11.82552911 65.60936176 -17.04222044 62.57281459 -22.625 59.4375 C-23.718125 58.839375 -24.81125 58.24125 -25.9375 57.625 C-31.63679765 52.9860368 -37.54539091 45.85408265 -39.3125 38.625 C-40.24537924 29.10963171 -39.68544169 20.36999177 -34.15625 12.28515625 C-25.43537562 1.76226446 -12.96758025 -0.22432756 0 0 Z " fill="#885846" transform="translate(248.625,318.5625)"/>
<path d="M0 0 C5.7759504 3.99240277 6.34835357 13.87282521 7.69921875 20.35546875 C10.77981094 40.04067131 10.89142082 62.64246227 6 82 C5.68252831 83.37735902 5.36614836 84.75497008 5.05078125 86.1328125 C3.53350709 92.43367352 2.12114761 97.82730253 -2 103 C-6.11050028 103.76120376 -8.27001453 103.36499274 -12 101.5 C-17.26502654 97.11247788 -21.76957543 92.08079919 -25 86 C-22.69 86 -20.38 86 -18 86 C-23.20271288 79.75674454 -30.13219772 77.40496469 -38 76 C-36.60930015 72.67658396 -35.15348313 71.13256793 -32.1875 69.125 C-27.86054667 66.0095936 -23.96819139 62.8300979 -22.1875 57.625 C-22.125625 57.08875 -22.06375 56.5525 -22 56 C-22.81726563 56.16371094 -23.63453125 56.32742187 -24.4765625 56.49609375 C-28.48768176 57.06974606 -32.33248121 57.11001604 -36.375 57.0625 C-37.11105469 57.05798828 -37.84710938 57.05347656 -38.60546875 57.04882812 C-40.40368158 57.03715142 -42.20185197 57.01922011 -44 57 C-45.04437129 53.1773333 -45.03313052 51.22145796 -43.25 47.6875 C-41.23789623 43.52356303 -39.58030495 39.34583861 -38 35 C-37.34 35 -36.68 35 -36 35 C-35.74992187 34.13503906 -35.49984375 33.27007812 -35.2421875 32.37890625 C-33.92763285 28.80315226 -32.27217122 26.07723151 -30.125 22.9375 C-29.44695312 21.93589844 -28.76890625 20.93429688 -28.0703125 19.90234375 C-26.12662357 17.1775119 -24.2075281 14.51695149 -22 12 C-21.34 12 -20.68 12 -20 12 C-19.7525 11.443125 -19.505 10.88625 -19.25 10.3125 C-14.94438575 2.34711363 -9.16996644 -1.75156662 0 0 Z " fill="#ECD3BD" transform="translate(396,95)"/>
<path d="M0 0 C2.4375 2.125 2.4375 2.125 5 5 C6.38690988 6.17726071 7.78335602 7.34334902 9.1875 8.5 C12.1835381 11.07851113 14.04018163 13.04074922 15 17 C15.66 17 16.32 17 17 17 C18.2890625 18.6796875 18.2890625 18.6796875 19.625 20.875 C20.29402344 21.95394531 20.29402344 21.95394531 20.9765625 23.0546875 C22 25 22 25 22 27 C22.66 27 23.32 27 24 27 C36 50.47572816 36 50.47572816 36 57 C32.9166866 57.02911321 29.83340875 57.04683682 26.75 57.0625 C25.87730469 57.07087891 25.00460938 57.07925781 24.10546875 57.08789062 C23.26113281 57.09111328 22.41679687 57.09433594 21.546875 57.09765625 C20.77182617 57.10289307 19.99677734 57.10812988 19.19824219 57.11352539 C17.00716402 57.00036998 15.10362139 56.60552448 13 56 C15.92584215 63.8884584 19.71923719 67.8612784 26.76953125 72.40625 C27.50558594 72.9321875 28.24164063 73.458125 29 74 C29 74.66 29 75.32 29 76 C27.948125 76.144375 26.89625 76.28875 25.8125 76.4375 C22.84539451 76.87526966 19.93205634 77.37804866 17 78 C17 78.66 17 79.32 17 80 C16.05125 80.433125 15.1025 80.86625 14.125 81.3125 C10.79958063 82.79302201 10.79958063 82.79302201 9 86 C11.31 86 13.62 86 16 86 C11.75034383 93.43689829 6.71205296 99.02955137 -1 103 C-4.1484375 103.42578125 -4.1484375 103.42578125 -7 103 C-8.609375 101.4609375 -8.609375 101.4609375 -9.75 99.375 C-10.1521875 98.64152344 -10.554375 97.90804687 -10.96875 97.15234375 C-13.36570046 92.14961761 -14.24907589 87.4710185 -15 82 C-15.33 81.67 -15.66 81.34 -16 81 C-20.11630057 61.98088859 -19.2923686 39.8336323 -16.75 20.625 C-16.64083252 19.78372559 -16.53166504 18.94245117 -16.41918945 18.07568359 C-15.51011768 12.18728297 -14.04442582 6.16910418 -11 1 C-7.18169018 -1.56011358 -4.39665473 -1.1570144 0 0 Z " fill="#ECD4BE" transform="translate(111,95)"/>
<path d="M0 0 C6.89204171 2.41998143 14.15003585 3.67894375 21.29296875 5.15625 C22.28296875 10.10625 22.28296875 10.10625 23.29296875 15.15625 C23.95296875 15.15625 24.61296875 15.15625 25.29296875 15.15625 C25.29296875 15.81625 25.29296875 16.47625 25.29296875 17.15625 C24.63296875 17.15625 23.97296875 17.15625 23.29296875 17.15625 C23.33421875 18.31125 23.37546875 19.46625 23.41796875 20.65625 C23.37100507 29.54804072 20.55378277 36.49687431 14.5390625 43.07421875 C6.43373827 50.75380878 -2.31724099 52.8304415 -13.26953125 52.65625 C-14.24599609 52.67171875 -15.22246094 52.6871875 -16.22851562 52.703125 C-25.54416013 52.6532754 -33.80694046 49.52683742 -40.70703125 43.15625 C-46.93344957 36.69542535 -47.95935003 29.29466332 -49.1640625 20.75390625 C-49.49145683 17.33012569 -49.49145683 17.33012569 -50.70703125 15.15625 C-50.04703125 15.15625 -49.38703125 15.15625 -48.70703125 15.15625 C-48.37703125 12.18625 -48.04703125 9.21625 -47.70703125 6.15625 C-43.48633241 4.65982041 -39.35177542 3.62639311 -34.95703125 2.78125 C-30.53341469 1.87515207 -26.576066 0.81319119 -22.45703125 -1.03125 C-14.34340919 -4.45935459 -7.94693934 -3.21088458 0 0 Z " fill="#D48F87" transform="translate(261.70703125,403.84375)"/>
<path d="M0 0 C1.30195313 -0.02384766 2.60390625 -0.04769531 3.9453125 -0.07226562 C14.5949392 -0.05612983 22.7056808 2.61350678 30.59375 9.90625 C34.69073407 14.73158679 35.44078281 20.34750191 35.23828125 26.5078125 C34.93777471 29.0990656 34.19408352 31.24896317 33 33.5625 C30.69 33.5625 28.38 33.5625 26 33.5625 C26 30.9225 26 28.2825 26 25.5625 C25.01 25.2325 24.02 24.9025 23 24.5625 C23 23.9025 23 23.2425 23 22.5625 C21.741875 22.706875 20.48375 22.85125 19.1875 23 C18.12595703 23.12181641 18.12595703 23.12181641 17.04296875 23.24609375 C14.80603607 23.53420735 14.80603607 23.53420735 12 24.5625 C10.52480257 28.04933029 10.72465957 31.8454042 11 35.5625 C14.62280198 37.97770132 16.27569137 37.74474326 20.5625 37.625 C26.80487805 37.46493902 26.80487805 37.46493902 29 38.5625 C29 41.5625 29 41.5625 27.6796875 43.0625 C23.95735583 46.15638606 20.46974236 48.60698772 16 50.5625 C14.845 51.119375 13.69 51.67625 12.5 52.25 C9.02842437 53.55184086 6.66365718 53.83057248 3 53.5625 C1.79729036 51.15708071 1.79683337 49.45883409 1.68359375 46.7734375 C1.64169922 45.83242188 1.59980469 44.89140625 1.55664062 43.921875 C1.51732422 42.93703125 1.47800781 41.9521875 1.4375 40.9375 C1.39431641 39.94492187 1.35113281 38.95234375 1.30664062 37.9296875 C1.20038931 35.47410162 1.09835036 33.01841297 1 30.5625 C0.34 30.5625 -0.32 30.5625 -1 30.5625 C-1.01458252 31.18817871 -1.02916504 31.81385742 -1.04418945 32.45849609 C-1.11852804 35.28546402 -1.21523234 38.11123208 -1.3125 40.9375 C-1.33505859 41.92234375 -1.35761719 42.9071875 -1.38085938 43.921875 C-1.41630859 44.86289062 -1.45175781 45.80390625 -1.48828125 46.7734375 C-1.51446533 47.64274902 -1.54064941 48.51206055 -1.56762695 49.40771484 C-2 51.5625 -2 51.5625 -5 53.5625 C-11.21235724 53.35191162 -15.64169696 51.62642328 -21 48.5625 C-21 47.9025 -21 47.2425 -21 46.5625 C-21.804375 46.294375 -22.60875 46.02625 -23.4375 45.75 C-24.283125 45.358125 -25.12875 44.96625 -26 44.5625 C-26.495 43.0775 -26.495 43.0775 -27 41.5625 C-27.66 41.5625 -28.32 41.5625 -29 41.5625 C-28.67 40.2425 -28.34 38.9225 -28 37.5625 C-22.72 37.5625 -17.44 37.5625 -12 37.5625 C-11.814375 36.16 -11.62875 34.7575 -11.4375 33.3125 C-11.33308594 32.52359375 -11.22867188 31.7346875 -11.12109375 30.921875 C-10.99674272 28.49903563 -11.08909671 26.81238135 -12 24.5625 C-14.84214068 23.61511977 -16.67608391 23.42789441 -19.625 23.4375 C-20.42164063 23.43492187 -21.21828125 23.43234375 -22.0390625 23.4296875 C-24.00353536 23.34679926 -24.00353536 23.34679926 -25 24.5625 C-25.23192865 26.07719448 -25.41215238 27.60004562 -25.5625 29.125 C-25.64628906 29.95128906 -25.73007813 30.77757812 -25.81640625 31.62890625 C-25.87699219 32.26699219 -25.93757812 32.90507812 -26 33.5625 C-30.75 34.6875 -30.75 34.6875 -33 33.5625 C-35.95764194 25.93489711 -34.73207535 19.18355228 -32 11.5625 C-30.0625 8.625 -30.0625 8.625 -28 6.5625 C-27.01 6.5625 -26.02 6.5625 -25 6.5625 C-25 5.9025 -25 5.2425 -25 4.5625 C-16.73592442 0.30528577 -9.18065904 -0.07726297 0 0 Z " fill="#BD7460" transform="translate(249,324.4375)"/>
<path d="M0 0 C6.93363674 4.13856268 9.88592028 10.38169472 12 18 C12.34430586 21.3900885 12.33732014 24.61180663 12 28 C10.23002526 28.81436868 8.45898848 29.6264294 6.6875 30.4375 C5.70136719 30.88996094 4.71523437 31.34242188 3.69921875 31.80859375 C-2.66012008 34.61553781 -9.88869963 35.43301033 -16.56640625 33.10546875 C-18.75 32 -18.75 32 -22 30 C-22 29.34 -22 28.68 -22 28 C-22.66 28 -23.32 28 -24 28 C-27.26716036 22.38456814 -29.54583991 17.55845316 -28 11 C-26.35642003 7.98844036 -24.49069105 5.36809227 -22 3 C-21.34 3 -20.68 3 -20 3 C-20 2.34 -20 1.68 -20 1 C-13.09793927 -2.38060117 -7.26000211 -3.32750097 0 0 Z " fill="#362314" transform="translate(193,246)"/>
<path d="M0 0 C4.53051147 4.21442927 8.9562326 9.11151529 9.3125 15.5625 C8.58391714 20.15257204 7.04657095 23.54013091 4.6875 27.5 C4.0275 27.5 3.3675 27.5 2.6875 27.5 C2.6875 28.16 2.6875 28.82 2.6875 29.5 C-4.41317469 34.0444318 -10.9867627 34.52089398 -19.3125 33.5 C-22.04800313 32.45545 -23.88497349 31.20443351 -26.3125 29.5 C-29.08388597 28.72514168 -29.08388597 28.72514168 -31.3125 28.5 C-31.76185476 19.21333504 -30.33262687 10.89615587 -24.3125 3.5 C-17.27104691 -3.48451412 -9.02433997 -4.08649357 0 0 Z " fill="#332112" transform="translate(324.3125,246.5)"/>
<path d="M0 0 C9.9 0 19.8 0 30 0 C30 0.66 30 1.32 30 2 C32.475 2.495 32.475 2.495 35 3 C35 3.33 35 3.66 35 4 C33.3603125 4.2165625 33.3603125 4.2165625 31.6875 4.4375 C28.06877013 4.88288104 28.06877013 4.88288104 25 6 C23.52480257 9.48683029 23.72465957 13.2829042 24 17 C27.62280198 19.41520132 29.27569137 19.18224326 33.5625 19.0625 C39.80487805 18.90243902 39.80487805 18.90243902 42 20 C42 23 42 23 40.6796875 24.5 C36.95735583 27.59388606 33.46974236 30.04448772 29 32 C27.845 32.556875 26.69 33.11375 25.5 33.6875 C22.02842437 34.98934086 19.66365718 35.26807248 16 35 C14.79729036 32.59458071 14.79683337 30.89633409 14.68359375 28.2109375 C14.64169922 27.26992188 14.59980469 26.32890625 14.55664062 25.359375 C14.51732422 24.37453125 14.47800781 23.3896875 14.4375 22.375 C14.39431641 21.38242187 14.35113281 20.38984375 14.30664062 19.3671875 C14.20038931 16.91160162 14.09835036 14.45591297 14 12 C13.34 12 12.68 12 12 12 C11.98541748 12.62567871 11.97083496 13.25135742 11.95581055 13.89599609 C11.88147196 16.72296402 11.78476766 19.54873208 11.6875 22.375 C11.66494141 23.35984375 11.64238281 24.3446875 11.61914062 25.359375 C11.58369141 26.30039062 11.54824219 27.24140625 11.51171875 28.2109375 C11.48553467 29.08024902 11.45935059 29.94956055 11.43237305 30.84521484 C11 33 11 33 8 35 C1.78764276 34.78941162 -2.64169696 33.06392328 -8 30 C-8 29.34 -8 28.68 -8 28 C-8.804375 27.731875 -9.60875 27.46375 -10.4375 27.1875 C-11.283125 26.795625 -12.12875 26.40375 -13 26 C-13.33 25.01 -13.66 24.02 -14 23 C-14.66 23 -15.32 23 -16 23 C-15.67 21.68 -15.34 20.36 -15 19 C-9.72 19 -4.44 19 1 19 C1.185625 17.5975 1.37125 16.195 1.5625 14.75 C1.66691406 13.96109375 1.77132812 13.1721875 1.87890625 12.359375 C2.13072064 9.69570949 2.13072064 9.69570949 1 6 C-2.3 5.34 -5.6 4.68 -9 4 C-9 3.67 -9 3.34 -9 3 C-4.545 2.505 -4.545 2.505 0 2 C0 1.34 0 0.68 0 0 Z " fill="#B16953" transform="translate(236,343)"/>
<path d="M0 0 C0.09688221 5.44693314 0.12862175 10.63904667 -1 16 C0.32 16.33 1.64 16.66 3 17 C3.60245747 26.48870512 1.35738415 34.89235521 -1 44 C-1.3344982 45.33304158 -1.66814261 46.66629855 -2 48 C-1.34 48.391875 -0.68 48.78375 0 49.1875 C2 51 2 51 2.25 53.6875 C2.1675 54.450625 2.085 55.21375 2 56 C1.34 56 0.68 56 0 56 C-0.0825 56.763125 -0.165 57.52625 -0.25 58.3125 C-1.14615794 61.52373261 -2.21611025 62.29374499 -5 64 C-8.415759 62.55661511 -10.36026263 60.75105832 -12.75 57.9375 C-13.36359375 57.22464844 -13.9771875 56.51179688 -14.609375 55.77734375 C-16 54 -16 54 -16 53 C-13.69 53 -11.38 53 -9 53 C-14.20271288 46.75674454 -21.13219772 44.40496469 -29 43 C-27.60930015 39.67658396 -26.15348313 38.13256793 -23.1875 36.125 C-18.1203591 32.47665855 -14.56237496 29.24949983 -13 23 C-16.96 23.33 -20.92 23.66 -25 24 C-23.7260411 21.96166576 -22.38938077 19.96147874 -21 18 C-20.34 18 -19.68 18 -19 18 C-18.690625 17.38125 -18.38125 16.7625 -18.0625 16.125 C-17.375 14.75 -16.6875 13.375 -16 12 C-15.34 12 -14.68 12 -14 12 C-13.74992187 11.42765625 -13.49984375 10.8553125 -13.2421875 10.265625 C-11.82460828 7.68010316 -10.18877994 5.85271918 -8.125 3.75 C-7.44695312 3.04359375 -6.76890625 2.3371875 -6.0703125 1.609375 C-4 0 -4 0 0 0 Z " fill="#DFBDA3" transform="translate(387,128)"/>
<path d="M0 0 C4.95319801 0.53069979 8.85070142 4.35344375 12 8 C12 8.66 12 9.32 12 10 C12.66 10 13.32 10 14 10 C17 13.46153846 17 13.46153846 17 16 C17.99 16.33 18.98 16.66 20 17 C24 21.45714286 24 21.45714286 24 24 C20.13013042 24.07442057 16.7264085 24.04702186 13 23 C15.92584215 30.8884584 19.71923719 34.8612784 26.76953125 39.40625 C27.50558594 39.9321875 28.24164063 40.458125 29 41 C29 41.66 29 42.32 29 43 C27.948125 43.144375 26.89625 43.28875 25.8125 43.4375 C22.84539451 43.87526966 19.93205634 44.37804866 17 45 C17 45.66 17 46.32 17 47 C16.05125 47.433125 15.1025 47.86625 14.125 48.3125 C10.79958063 49.79302201 10.79958063 49.79302201 9 53 C11.31 53 13.62 53 16 53 C10.68281605 62.30507192 10.68281605 62.30507192 7.0703125 63.796875 C5 64 5 64 3.33203125 63.03125 C-0.46652565 59.20339831 -1.77639942 56.59001458 -2 51 C-1.34 51 -0.68 51 0 51 C0.89471229 45.72119747 1.22631025 42.9213174 -1 38 C-2.79208158 31.300742 -3.26470845 24.91183171 -3 18 C-1.68 18 -0.36 18 1 18 C0.855625 17.35933594 0.71125 16.71867187 0.5625 16.05859375 C-0.53744397 10.93316038 -1.33468012 6.2433218 -1 1 C-0.67 0.67 -0.34 0.34 0 0 Z " fill="#DFBEA4" transform="translate(111,128)"/>
<path d="M0 0 C2.72603111 2.04452333 3.97582127 3.06366617 5 6.25 C5.66 6.25 6.32 6.25 7 6.25 C7 7.24 7 8.23 7 9.25 C7.66 9.25 8.32 9.25 9 9.25 C12.66833043 18.96124975 15.40620199 30.03139404 12 40.25 C8.40113059 42.70998669 3.87352894 43.39813931 -0.3125 44.375 C-1.04662109 44.55675781 -1.78074219 44.73851562 -2.53710938 44.92578125 C-12.35435855 47.24289596 -20.09216091 46.0912169 -29 41.25 C-29.825 40.87875 -30.65 40.5075 -31.5 40.125 C-34.73478096 37.69891428 -36.46311607 34.8233253 -38.5703125 31.40625 C-39.89068202 29.22477332 -39.89068202 29.22477332 -41.6796875 27.71875 C-43 26.25 -43 26.25 -43 22.25 C-42.34 22.25 -41.68 22.25 -41 22.25 C-40.71125 21.651875 -40.4225 21.05375 -40.125 20.4375 C-39 18.25 -39 18.25 -37 15.25 C-36.34 15.25 -35.68 15.25 -35 15.25 C-34.773125 14.693125 -34.54625 14.13625 -34.3125 13.5625 C-30.68268074 7.16710415 -23.69913286 2.0191505 -17.125 -1.125 C-11.22018418 -2.30596316 -5.47217918 -2.90174011 0 0 Z M-25 9.25 C-25 9.91 -25 10.57 -25 11.25 C-25.86625 11.559375 -25.86625 11.559375 -26.75 11.875 C-30.01471209 13.87010184 -31.26414622 15.84028722 -33 19.25 C-34.2344259 25.92824414 -32.33349351 30.52055802 -29 36.25 C-28.34 36.25 -27.68 36.25 -27 36.25 C-27 36.91 -27 37.57 -27 38.25 C-20.3269297 42.3565048 -14.79012018 43.37357503 -7 42.25 C0.53259377 40.26005648 0.53259377 40.26005648 7 36.25 C8.18202306 28.19535714 6.058113 21.19561647 2 14.25 C-1.80384301 9.77128162 -5.1047891 7.06410055 -11 6.25 C-16.64155014 5.8321074 -20.03481335 6.81807185 -25 9.25 Z " fill="#EAE0D1" transform="translate(198,237.75)"/>
<path d="M0 0 C1.40755553 0.70627343 2.80487499 1.43358833 4.1875 2.1875 C5.198125 2.72375 6.20875 3.26 7.25 3.8125 C8.2090625 4.493125 8.2090625 4.493125 9.1875 5.1875 C9.1875 5.8475 9.1875 6.5075 9.1875 7.1875 C9.93 7.373125 10.6725 7.55875 11.4375 7.75 C14.65915584 9.43404737 15.58554433 11.25799724 17.20703125 14.44140625 C18.50155126 16.74678651 20.2956881 18.36325281 22.1875 20.1875 C22.1875 20.8475 22.1875 21.5075 22.1875 22.1875 C22.8475 22.1875 23.5075 22.1875 24.1875 22.1875 C23.85653688 27.48290989 20.71520257 31.43163757 17.1875 35.1875 C16.1975 35.5175 15.2075 35.8475 14.1875 36.1875 C13.8884375 36.81269531 13.589375 37.43789063 13.28125 38.08203125 C11.12368809 42.23533792 6.38198157 43.59157986 2.1875 45.1875 C-8.14547221 48.01493021 -20.43436419 44.85318103 -29.8125 40.1875 C-32.19959237 35.72467513 -32.19091843 31.14134123 -31.8125 26.1875 C-31.75578125 25.3625 -31.6990625 24.5375 -31.640625 23.6875 C-30.5918984 15.09792979 -26.3374082 6.14892907 -19.7421875 0.375 C-13.73411467 -3.32227559 -6.26475463 -2.7493563 0 0 Z M-17.46484375 10.703125 C-24.66771737 18.52238145 -26.01454396 26.88325779 -25.8125 37.1875 C-24.94625 37.455625 -24.08 37.72375 -23.1875 38 C-19.8125 39.1875 -19.8125 39.1875 -17.03125 40.734375 C-10.97490128 43.46855185 -3.4176872 43.39796256 2.875 41.28515625 C5.27162009 40.13005272 5.27162009 40.13005272 8.1875 38.1875 C8.1875 37.5275 8.1875 36.8675 8.1875 36.1875 C8.8475 36.1875 9.5075 36.1875 10.1875 36.1875 C13.48273309 30.65621588 15.02195095 26.6544949 14.1875 20.1875 C11.31231347 14.7565921 7.28634049 10.58672699 2.1875 7.1875 C-5.10305924 5.64348029 -11.659633 5.37825084 -17.46484375 10.703125 Z " fill="#E7DDCE" transform="translate(318.8125,237.8125)"/>
<path d="M0 0 C6.89204171 2.41998143 14.15003585 3.67894375 21.29296875 5.15625 C22.28296875 10.10625 22.28296875 10.10625 23.29296875 15.15625 C23.95296875 15.15625 24.61296875 15.15625 25.29296875 15.15625 C25.29296875 15.81625 25.29296875 16.47625 25.29296875 17.15625 C23.64296875 17.15625 21.99296875 17.15625 20.29296875 17.15625 C20.29296875 15.17625 20.29296875 13.19625 20.29296875 11.15625 C10.38014432 8.51283015 0.46889241 8.96369249 -9.70703125 9.15625 C-9.79791016 10.89261719 -9.79791016 10.89261719 -9.890625 12.6640625 C-9.97508627 14.20313457 -10.05973143 15.74219655 -10.14453125 17.28125 C-10.18384766 18.04179687 -10.22316406 18.80234375 -10.26367188 19.5859375 C-10.50212127 23.84134203 -10.90933362 27.95995826 -11.70703125 32.15625 C-12.36703125 32.15625 -13.02703125 32.15625 -13.70703125 32.15625 C-14.36703125 24.56625 -15.02703125 16.97625 -15.70703125 9.15625 C-18.71828125 8.95 -21.72953125 8.74375 -24.83203125 8.53125 C-25.76934082 8.46083496 -26.70665039 8.39041992 -27.67236328 8.31787109 C-32.54410976 8.02421737 -36.09774691 8.32364297 -40.70703125 10.15625 C-44.08203125 10.28125 -44.08203125 10.28125 -46.70703125 10.15625 C-46.37703125 11.80625 -46.04703125 13.45625 -45.70703125 15.15625 C-46.36703125 15.15625 -47.02703125 15.15625 -47.70703125 15.15625 C-48.03703125 16.47625 -48.36703125 17.79625 -48.70703125 19.15625 C-49.36703125 17.83625 -50.02703125 16.51625 -50.70703125 15.15625 C-50.04703125 15.15625 -49.38703125 15.15625 -48.70703125 15.15625 C-48.37703125 12.18625 -48.04703125 9.21625 -47.70703125 6.15625 C-43.48633241 4.65982041 -39.35177542 3.62639311 -34.95703125 2.78125 C-30.53341469 1.87515207 -26.576066 0.81319119 -22.45703125 -1.03125 C-14.34340919 -4.45935459 -7.94693934 -3.21088458 0 0 Z M19.29296875 17.15625 C20.77796875 18.14625 20.77796875 18.14625 22.29296875 19.15625 C21.30296875 19.48625 20.31296875 19.81625 19.29296875 20.15625 C19.29296875 19.16625 19.29296875 18.17625 19.29296875 17.15625 Z " fill="#C57F74" transform="translate(261.70703125,403.84375)"/>
<path d="M0 0 C1.16273438 -0.00708984 2.32546875 -0.01417969 3.5234375 -0.02148438 C12.50587123 0.04456293 19.66260889 1.55879411 27.4375 6.125 C28.56865234 6.78048828 28.56865234 6.78048828 29.72265625 7.44921875 C30.26792969 7.77535156 30.81320312 8.10148437 31.375 8.4375 C31.375 9.0975 31.375 9.7575 31.375 10.4375 C31.98988281 10.68757813 32.60476563 10.93765625 33.23828125 11.1953125 C35.74359433 12.65178336 36.3610275 13.71339622 37.5625 16.3125 C37.88605469 16.99054688 38.20960938 17.66859375 38.54296875 18.3671875 C40.16855102 22.41206356 40.48944414 25.82419263 40.4375 30.1875 C40.42847656 31.17234375 40.41945313 32.1571875 40.41015625 33.171875 C40.39855469 33.91953125 40.38695312 34.6671875 40.375 35.4375 C40.045 35.4375 39.715 35.4375 39.375 35.4375 C39.21064453 34.35082031 39.21064453 34.35082031 39.04296875 33.2421875 C38.14371183 27.75891361 37.07810061 23.35222839 34.375 18.4375 C34.375 17.4475 34.375 16.4575 34.375 15.4375 C33.66601562 15.50839844 32.95703125 15.57929688 32.2265625 15.65234375 C28.57240276 15.37703034 26.75688746 14.05843398 23.75 12 C16.60011586 7.15179089 11.28741168 7.22140639 2.77075195 7.19726562 C0.71198264 7.18761477 -1.34576404 7.15660516 -3.40429688 7.125 C-10.5729855 7.09687371 -16.11404308 7.38674337 -22.625 10.4375 C-23.285 10.4375 -23.945 10.4375 -24.625 10.4375 C-24.625 11.0975 -24.625 11.7575 -24.625 12.4375 C-25.6975 12.6025 -26.77 12.7675 -27.875 12.9375 C-30.2071158 13.61730704 -31.36619075 14.13121686 -32.9453125 16 C-35.69505047 21.05137049 -36.94594926 26.68180993 -36.625 32.4375 C-35.965 33.0975 -35.305 33.7575 -34.625 34.4375 C-34.57925716 36.77038492 -34.58675377 39.10448014 -34.625 41.4375 C-34.32807988 43.77574592 -34.00479153 46.11127689 -33.625 48.4375 C-39.28691934 40.97406086 -40.49217783 34.51119341 -39.3515625 25.20703125 C-37.99336018 17.76254497 -34.89383114 12.00643161 -29 7.1875 C-19.83425956 1.05088678 -10.84921018 -0.18768165 0 0 Z " fill="#9A5F50" transform="translate(248.625,318.5625)"/>
<path d="M0 0 C1.57587891 0.83144531 1.57587891 0.83144531 3.18359375 1.6796875 C13.6318205 7.12361313 13.6318205 7.12361313 25 10 C25 12.97 25 15.94 25 19 C11.11070991 26.94606722 0.07022061 30.278313 -16 29 C-16.66 28.34 -17.32 27.68 -18 27 C-17.33613281 26.81824219 -16.67226562 26.63648438 -15.98828125 26.44921875 C-7.40013244 24.03308289 -7.40013244 24.03308289 -0.75 18.3125 C2.06412533 12.98576278 2.5497783 9.08006672 1.0078125 3.24609375 C0.67523438 2.17488281 0.34265625 1.10367187 0 0 Z " fill="#EDDFCE" transform="translate(222,375)"/>
<path d="M0 0 C0.33 0.66 0.66 1.32 1 2 C0.54625 2.474375 0.0925 2.94875 -0.375 3.4375 C-3.33217412 8.10073612 -4.66754528 14.49275146 -4 20 C-3.34 20.66 -2.68 21.32 -2 22 C-2.375 24.625 -2.375 24.625 -3 27 C-1.02 27 0.96 27 3 27 C3.04898438 26.37351562 3.09796875 25.74703125 3.1484375 25.1015625 C3.22320312 24.28429687 3.29796875 23.46703125 3.375 22.625 C3.44460937 21.81289063 3.51421875 21.00078125 3.5859375 20.1640625 C4 18 4 18 6 16 C9.03704568 15.49578006 11.95802594 15.54532772 15 16 C17.50160818 17.87620613 18.61945652 19.23891303 20 22 C20.37728208 25.4709951 20.50293006 27.30016217 18.43359375 30.1796875 C15.09978432 32.67335555 12.86238059 32.40231039 8.75 32.25 C7.48671875 32.21390625 6.2234375 32.1778125 4.921875 32.140625 C3.95765625 32.09421875 2.9934375 32.0478125 2 32 C1.67 32.99 1.34 33.98 1 35 C1.66 35 2.32 35 3 35 C4.35432675 36.31200404 5.68733482 37.64631404 7 39 C7.66 39.33 8.32 39.66 9 40 C9 40.66 9 41.32 9 42 C9.5775 42.13535156 10.155 42.27070313 10.75 42.41015625 C15.6762369 43.70158294 20.52057685 45.5736458 25 48 C24.01 48 23.02 48 22 48 C22 48.66 22 49.32 22 50 C21.01 50 20.02 50 19 50 C19 50.66 19 51.32 19 52 C9.86438203 49.53791856 1.14135872 45.25733371 -4 37 C-5.48771093 31.69122101 -6.10951302 26.50551804 -6 21 C-6.66 21.99 -7.32 22.98 -8 24 C-7.91224337 21.79095369 -7.80405633 19.58271407 -7.6875 17.375 C-7.62949219 16.14523437 -7.57148438 14.91546875 -7.51171875 13.6484375 C-6.68611695 7.76208574 -4.38845498 3.93447688 0 0 Z " fill="#975746" transform="translate(219,331)"/>
<path d="M0 0 C0 0.99 0 1.98 0 3 C-0.99 3.33 -1.98 3.66 -3 4 C-3 8.95 -3 13.9 -3 19 C-2.34 19 -1.68 19 -1 19 C-0.401875 19.9075 0.19625 20.815 0.8125 21.75 C4.67746223 26.72260384 11.16653193 27.54803869 17 29 C10.73046316 32.99842911 0.64423723 31.78211588 -6.3671875 30.27734375 C-21.61328872 25.38671128 -21.61328872 25.38671128 -26 21 C-26.07179964 19.48071962 -26.08392007 17.95832518 -26.0625 16.4375 C-26.05347656 15.61121094 -26.04445312 14.78492188 -26.03515625 13.93359375 C-26.02355469 13.29550781 -26.01195312 12.65742188 -26 12 C-25.00033203 11.77957031 -25.00033203 11.77957031 -23.98046875 11.5546875 C-15.02343233 9.37493318 -7.28224961 5.67711338 0 0 Z " fill="#EDDFCF" transform="translate(277,373)"/>
<path d="M0 0 C1.32 0 2.64 0 4 0 C7.71667131 8.22977218 10.74691281 15.89109748 9 25 C4.64996879 35.69127388 -3.86320775 42.94086968 -14 48 C-14.66 48 -15.32 48 -16 48 C-16 47.01 -16 46.02 -16 45 C-15.31292969 44.67386719 -14.62585938 44.34773438 -13.91796875 44.01171875 C-13.01691406 43.57472656 -12.11585938 43.13773437 -11.1875 42.6875 C-10.29417969 42.25824219 -9.40085937 41.82898438 -8.48046875 41.38671875 C-4.67878492 39.26136795 -2.5297643 36.49348403 0 33 C-1.485 32.505 -1.485 32.505 -3 32 C-2.34 32 -1.68 32 -1 32 C-1 31.01 -1 30.02 -1 29 C-2.55460937 29.05220703 -2.55460937 29.05220703 -4.140625 29.10546875 C-5.51040042 29.13361482 -6.88019341 29.16091411 -8.25 29.1875 C-8.93191406 29.21263672 -9.61382812 29.23777344 -10.31640625 29.26367188 C-13.45073368 29.30931742 -15.66497401 29.17655338 -18.4609375 27.703125 C-20 26 -20 26 -20.375 22.5625 C-20.03849407 19.3656937 -19.82009501 17.5864508 -18 15 C-14.17841749 12.45227833 -11.47475477 12.43133325 -7 13 C-5 14 -5 14 -4 16 C-3.76940693 18.71885319 -3.86524177 21.25991592 -4 24 C-1.69 24 0.62 24 3 24 C5.3070044 15.06035795 3.85714242 8.2480858 0 0 Z " fill="#935747" transform="translate(279,334)"/>
<path d="M0 0 C0.66 0 1.32 0 2 0 C2.66 7.59 3.32 15.18 4 23 C6.84625 22.3503125 6.84625 22.3503125 9.75 21.6875 C11.35101563 21.32205078 11.35101563 21.32205078 12.984375 20.94921875 C15.95982467 20.01264586 17.6410838 18.98481495 20 17 C20.86625 16.484375 21.7325 15.96875 22.625 15.4375 C25.07611371 14.08307837 25.07611371 14.08307837 27 12 C28.32 12 29.64 12 31 12 C29.63477255 17.30921786 26.43793795 19.27355382 22 22 C19.19643634 23.63541213 18.30678888 24 15 24 C14.67 25.32 14.34 26.64 14 28 C10.12315913 29.19287411 7.08378077 30 3 30 C3 31.65 3 33.3 3 35 C1.02 35.495 1.02 35.495 -1 36 C-1 34.02 -1 32.04 -1 30 C-3.97 29.67 -6.94 29.34 -10 29 C-10 28.01 -10 27.02 -10 26 C-9.01 26 -8.02 26 -7 26 C-7 25.34 -7 24.68 -7 24 C-6.01 24 -5.02 24 -4 24 C-4 23.34 -4 22.68 -4 22 C-3.34 21.67 -2.68 21.34 -2 21 C-1.90912109 19.10314453 -1.90912109 19.10314453 -1.81640625 17.16796875 C-1.73199096 15.50780129 -1.64734345 13.84764563 -1.5625 12.1875 C-1.52318359 11.35412109 -1.48386719 10.52074219 -1.44335938 9.66210938 C-1.40146484 8.85966797 -1.35957031 8.05722656 -1.31640625 7.23046875 C-1.26141968 6.12288208 -1.26141968 6.12288208 -1.20532227 4.99291992 C-1 3 -1 3 0 0 Z " fill="#925341" transform="translate(248,355)"/>
<path d="M0 0 C2.875 2.625 2.875 2.625 5 5 C3.02 5.99 3.02 5.99 1 7 C1 6.34 1 5.68 1 5 C-0.58086048 4.63495397 -2.16483907 4.28339494 -3.75 3.9375 C-4.63171875 3.74027344 -5.5134375 3.54304687 -6.421875 3.33984375 C-9.01413902 2.99813622 -10.57932392 3.0459047 -13 4 C-13.33 4.66 -13.66 5.32 -14 6 C-15.32 5.67 -16.64 5.34 -18 5 C-18.68346682 6.65984798 -19.34588315 8.32836805 -20 10 C-20.391875 10.99 -20.78375 11.98 -21.1875 13 C-22.47273254 17.74547399 -21.33765639 20.56609817 -19.0625 24.75 C-17.37411615 28.02775993 -17.37411615 28.02775993 -15 29 C-15 29.66 -15 30.32 -15 31 C-17.31 30.67 -19.62 30.34 -22 30 C-22 29.34 -22 28.68 -22 28 C-22.66 28 -23.32 28 -24 28 C-27.26716036 22.38456814 -29.54583991 17.55845316 -28 11 C-26.35642003 7.98844036 -24.49069105 5.36809227 -22 3 C-21.34 3 -20.68 3 -20 3 C-20 2.34 -20 1.68 -20 1 C-13.09592226 -2.3815891 -7.27378106 -3.32063918 0 0 Z " fill="#2E1D10" transform="translate(193,246)"/>
<path d="M0 0 C0.89203125 0.29648438 1.7840625 0.59296875 2.703125 0.8984375 C3.37859375 1.13820312 4.0540625 1.37796875 4.75 1.625 C4.75 2.285 4.75 2.945 4.75 3.625 C6.4 2.965 8.05 2.305 9.75 1.625 C9.440625 2.7078125 9.440625 2.7078125 9.125 3.8125 C8.50680462 6.60717273 8.50680462 6.60717273 9.75 8.9375 C11.15438273 12.7117786 10.83047673 15.77725913 9.75 19.625 C7.9024488 22.61930712 6.82717232 24.23602111 3.5 25.4375 C2.63375 25.5303125 2.63375 25.5303125 1.75 25.625 C1.09 24.635 0.43 23.645 -0.25 22.625 C0.389375 21.8 1.02875 20.975 1.6875 20.125 C4.21413081 16.39308594 4.44360228 13.06776697 4.75 8.625 C3.76 8.295 2.77 7.965 1.75 7.625 C1.0625 5.5625 1.0625 5.5625 0.75 3.625 C-0.57 3.955 -1.89 4.285 -3.25 4.625 C-3.37375 5.57375 -3.4975 6.5225 -3.625 7.5 C-4.25 10.625 -4.25 10.625 -6.25 12.625 C-9.375 12.25 -9.375 12.25 -12.25 11.625 C-13 8.9375 -13 8.9375 -13.25 5.625 C-9.70322888 -0.15492331 -6.47366343 -2.21467433 0 0 Z " fill="#392414" transform="translate(189.25,249.375)"/>
<path d="M0 0 C6.14561856 0.87794551 12.03328744 2.55649347 18.01171875 4.18359375 C22.32653064 5.34289933 26.5685239 6.36693199 31 7 C31.66 10.3 32.32 13.6 33 17 C33.66 17 34.32 17 35 17 C35 17.66 35 18.32 35 19 C33.35 19 31.7 19 30 19 C30 17.02 30 15.04 30 13 C20.07740068 10.35397352 10.1856548 10.82199827 0 11 C0 7.37 0 3.74 0 0 Z M29 19 C30.485 19.99 30.485 19.99 32 21 C31.01 21.33 30.02 21.66 29 22 C29 21.01 29 20.02 29 19 Z " fill="#C78277" transform="translate(252,402)"/>
<path d="M0 0 C3.37807372 0.06517184 4.34036724 0.16152543 7.125 2.25 C9.63423843 5.80475444 10.06244219 8.00057809 9.625 12.375 C8.0625 14.75 8.0625 14.75 5.625 16.375 C0.38888889 17.05375514 -2.86153233 16.01702986 -7.375 13.375 C-7.26110125 11.58259337 -7.13352313 9.79105165 -7 8 C-6.93039063 7.00226563 -6.86078125 6.00453125 -6.7890625 4.9765625 C-6.08097026 0.52760561 -4.10728243 0.06822728 0 0 Z " fill="#66321F" transform="translate(229.375,346.625)"/>
<path d="M0 0 C0.680625 -0.01675781 1.36125 -0.03351563 2.0625 -0.05078125 C4.65053711 0.43447571 5.47139256 1.17891499 7 3.3125 C7.51171875 5.79296875 7.51171875 5.79296875 7.6875 8.5 C7.78611328 9.85158203 7.78611328 9.85158203 7.88671875 11.23046875 C7.92410156 11.91753906 7.96148437 12.60460937 8 13.3125 C3.47075673 15.96376436 0.24957258 16.89578584 -5 16.3125 C-7.4375 15.25 -7.4375 15.25 -9 13.3125 C-9.45563854 9.13581342 -9.46431192 5.81441694 -7 2.3125 C-4.03082597 0.33305064 -3.34297721 0.01899419 0 0 Z " fill="#65311E" transform="translate(268,346.6875)"/>
<path d="M0 0 C3.75989015 0.50809326 5.55235093 1.10055364 8 4 C8.96386719 5.91015625 8.96386719 5.91015625 9.796875 8.0625 C10.11277588 8.85446777 10.42867676 9.64643555 10.75415039 10.46240234 C11.08278076 11.29980957 11.41141113 12.1372168 11.75 13 C14.50924108 19.86218013 17.41800232 25.82199874 21.84765625 31.7734375 C23.3090675 34.59718126 22.92039509 36.02317931 22 39 C14.63304825 32.28307341 10.46606231 24.19760478 6.45703125 15.1640625 C4.80374435 11.57381481 2.91492519 8.19154199 0.8828125 4.8046875 C0 3 0 3 0 0 Z " fill="#A28368" transform="translate(170,361)"/>
<path d="M0 0 C2.25 0.25 2.25 0.25 4 1 C-1.28028733 14.64074227 -7.28419853 28.72971325 -18 39 C-18 37.68 -18 36.36 -18 35 C-18.66 34.67 -19.32 34.34 -20 34 C-19.41992188 33.27296875 -19.41992188 33.27296875 -18.828125 32.53125 C-14.38390074 26.81096135 -11.32532127 21.20526067 -8.5625 14.5234375 C-8.3046875 13.90291504 -8.046875 13.28239258 -7.78125 12.64306641 C-7.03049964 10.82390445 -6.29614131 8.9980039 -5.5625 7.171875 C-4.02979026 4.06047423 -2.69682485 2.15745988 0 0 Z " fill="#A2876D" transform="translate(324,361)"/>
<path d="M0 0 C0.28875 0.639375 0.5775 1.27875 0.875 1.9375 C1.82823451 4.15206079 1.82823451 4.15206079 4 5 C4.61514196 12.25867508 4.61514196 12.25867508 1.5625 15.9375 C0.2940625 16.9584375 0.2940625 16.9584375 -1 18 C-1.33 18.33 -1.66 18.66 -2 19 C-7.21902792 18.91582213 -7.21902792 18.91582213 -10 18 C-12.58039185 14.37132396 -13 12.47335974 -13 8 C-11.02 8 -9.04 8 -7 8 C-6.319375 6.2984375 -6.319375 6.2984375 -5.625 4.5625 C-3.54385965 0 -3.54385965 0 0 0 Z " fill="#2B1A0D" transform="translate(190,253)"/>
<path d="M0 0 C0 1.65 0 3.3 0 5 C-0.66 5 -1.32 5 -2 5 C-2 5.66 -2 6.32 -2 7 C-3.51266847 7.88488116 -5.06217289 8.70706117 -6.625 9.5 C-11.82145949 12.46205541 -14.0990179 15.63953128 -16.74609375 20.92578125 C-18 23 -18 23 -21 24 C-22.61444178 22.38555822 -22.62671579 20.39224529 -23.0625 18.1875 C-23.23910156 17.31480469 -23.41570312 16.44210937 -23.59765625 15.54296875 C-24 13 -24 13 -24 9 C-23.0821875 8.76925781 -22.164375 8.53851563 -21.21875 8.30078125 C-14.92087394 6.62708099 -5.5976523 0 0 0 Z " fill="#553320" transform="translate(306,396)"/>
<path d="M0 0 C2.43259577 1.08115368 4.17956886 2.1590467 6.1875 3.9375 C11.4104488 7.76766245 17.63121889 9.1834896 24 10 C23.09276387 14.68738665 22.0452733 19.34193744 21 24 C19.046875 23.1328125 19.046875 23.1328125 17 22 C16.25 19.875 16.25 19.875 16 18 C15.34 18 14.68 18 14 18 C13.2575 16.9790625 13.2575 16.9790625 12.5 15.9375 C9.46121019 12.36692197 6.04539704 10.33936383 2.046875 7.94140625 C0 6 0 6 -0.296875 2.77734375 C-0.19890625 1.86082031 -0.1009375 0.94429688 0 0 Z " fill="#56321F" transform="translate(192,395)"/>
<path d="M0 0 C0.70125 0.144375 1.4025 0.28875 2.125 0.4375 C2.125 1.0975 2.125 1.7575 2.125 2.4375 C3.445 2.1075 4.765 1.7775 6.125 1.4375 C3.02795228 6.55436145 -0.79580378 10.78209013 -4.8515625 15.16796875 C-6.99380251 17.46438897 -6.99380251 17.46438897 -8.875 20.4375 C-10.195 20.4375 -11.515 20.4375 -12.875 20.4375 C-12.875 19.4475 -12.875 18.4575 -12.875 17.4375 C-16.03615776 18.80733503 -16.8677092 19.4265638 -18.875 22.4375 C-19.865 21.7775 -20.855 21.1175 -21.875 20.4375 C-17.125 16.4375 -17.125 16.4375 -14.875 16.4375 C-14.875 15.7775 -14.875 15.1175 -14.875 14.4375 C-14.215 14.4375 -13.555 14.4375 -12.875 14.4375 C-12.875 13.7775 -12.875 13.1175 -12.875 12.4375 C-12.215 12.4375 -11.555 12.4375 -10.875 12.4375 C-10.66875 11.756875 -10.4625 11.07625 -10.25 10.375 C-8.07760318 5.73397042 -5.34012685 0.812628 0 0 Z " fill="#D7CDBD" transform="translate(338.875,110.5625)"/>
<path d="M0 0 C3.77168435 5.65752653 4.63119688 10.28746396 4 17 C3 20.0625 3 20.0625 2 22 C-0.31 22 -2.62 22 -5 22 C-5 19.36 -5 16.72 -5 14 C-5.99 13.67 -6.98 13.34 -8 13 C-8 12.34 -8 11.68 -8 11 C-7.34 11 -6.68 11 -6 11 C-5.9175 10.236875 -5.835 9.47375 -5.75 8.6875 C-4.83919988 5.42379958 -3.71861635 4.86904874 -1 3 C-0.67 2.01 -0.34 1.02 0 0 Z " fill="#B16650" transform="translate(280,336)"/>
<path d="M0 0 C-0.33 0.66 -0.66 1.32 -1 2 C-1.804375 2.144375 -2.60875 2.28875 -3.4375 2.4375 C-6.34440658 2.76502717 -6.34440658 2.76502717 -8 6 C-7.34 6.66 -6.68 7.32 -6 8 C-14.60141368 11.11430495 -23.7976824 14 -33 14 C-33 12.68 -33 11.36 -33 10 C-34.98 10 -36.96 10 -39 10 C-39 9.67 -39 9.34 -39 9 C-38.10539063 8.96261719 -37.21078125 8.92523438 -36.2890625 8.88671875 C-24.43983699 8.24246448 -15.95891924 5.80019046 -5.56640625 0.109375 C-3 -1 -3 -1 0 0 Z " fill="#875846" transform="translate(249,395)"/>
<path d="M0 0 C0.33 0.66 0.66 1.32 1 2 C1.66 2 2.32 2 3 2 C3.390625 4.0703125 3.390625 4.0703125 3 7 C1.19550255 9.57545448 -0.99556437 11.69297665 -3.25 13.875 C-4.12978516 14.78378906 -4.12978516 14.78378906 -5.02734375 15.7109375 C-5.60097656 16.278125 -6.17460937 16.8453125 -6.765625 17.4296875 C-7.28930664 17.94772949 -7.81298828 18.46577148 -8.35253906 18.99951172 C-10 20 -10 20 -12.20214844 19.66064453 C-12.79543945 19.44263184 -13.38873047 19.22461914 -14 19 C-13.67 17.35 -13.34 15.7 -13 14 C-12.34 14 -11.68 14 -11 14 C-11 13.34 -11 12.68 -11 12 C-10.505 11.525625 -10.01 11.05125 -9.5 10.5625 C-7.65373409 9.00030058 -7.65373409 9.00030058 -8 6 C-5.5 3.8125 -5.5 3.8125 -3 2 C-3 2.99 -3 3.98 -3 5 C-2.01 3.35 -1.02 1.7 0 0 Z " fill="#DFD3C3" transform="translate(372,72)"/>
<path d="M0 0 C-0.66 1.32 -1.32 2.64 -2 4 C-11.24 4.33 -20.48 4.66 -30 5 C-22.08787967 -2.91212033 -10.31199968 -4.80206293 0 0 Z " fill="#9C5849" transform="translate(261,321)"/>
<path d="M0 0 C1.65 0 3.3 0 5 0 C5.02913072 4.37498593 5.04684286 8.74994674 5.0625 13.125 C5.07087891 14.3625 5.07925781 15.6 5.08789062 16.875 C5.09111328 18.07382812 5.09433594 19.27265625 5.09765625 20.5078125 C5.10289307 21.60754395 5.10812988 22.70727539 5.11352539 23.84033203 C5.0008558 26.97618105 4.58626376 29.92059383 4 33 C3.34 33 2.68 33 2 33 C1.09342772 26.13696457 0.90759684 19.4788764 1 12.5625 C1.0254318 10.60552311 1.04649119 8.64848291 1.0625 6.69140625 C1.07410156 5.83748291 1.08570313 4.98355957 1.09765625 4.10375977 C1.13969279 1.94167057 1.13969279 1.94167057 0 0 Z " fill="#B47169" transform="translate(246,403)"/>
<path d="M0 0 C0.33 0.99 0.66 1.98 1 3 C1.65129797 4.34090759 2.31513275 5.67592331 3 7 C3.33 7 3.66 7 4 7 C4.84800767 14.692641 5.12152487 22.26291674 5 30 C4.67 30 4.34 30 4 30 C3.97421875 29.38511719 3.9484375 28.77023438 3.921875 28.13671875 C3.7185352 23.00745409 3.7185352 23.00745409 0.9375 18.9375 C0.298125 18.628125 -0.34125 18.31875 -1 18 C-1.66 18.33 -2.32 18.66 -3 19 C-2.98839844 18.10796875 -2.97679687 17.2159375 -2.96484375 16.296875 C-2.95582031 15.12640625 -2.94679688 13.9559375 -2.9375 12.75 C-2.92589844 11.58984375 -2.91429687 10.4296875 -2.90234375 9.234375 C-2.98217908 6.59022872 -3.21356222 4.50173909 -4 2 C-2.68 1.34 -1.36 0.68 0 0 Z " fill="#D1C4B4" transform="translate(419,120)"/>
<path d="M0 0 C4.25014075 1.51790741 5.95899274 4.06377171 8 8 C8.47314549 11.48701742 8.6074907 14.78501861 7 18 C4.4375 18.625 4.4375 18.625 2 19 C1.95101563 18.00097656 1.90203125 17.00195312 1.8515625 15.97265625 C1.77679688 14.68230469 1.70203125 13.39195312 1.625 12.0625 C1.55539062 10.77472656 1.48578125 9.48695313 1.4140625 8.16015625 C1.27742188 7.11730469 1.14078125 6.07445312 1 5 C0.34 4.67 -0.32 4.34 -1 4 C-0.67 2.68 -0.34 1.36 0 0 Z " fill="#2B1C0E" transform="translate(325,250)"/>
<path d="M0 0 C3.7727668 0.50983335 5.56550637 1.07099986 8 4 C8.96075437 5.82137378 9.85279353 7.68002384 10.6875 9.5625 C11.12449219 10.53316406 11.56148437 11.50382812 12.01171875 12.50390625 C13 15 13 15 13 17 C11.35 17.33 9.7 17.66 8 18 C6.84917315 15.75243216 5.70423142 13.50218252 4.5625 11.25 C4.23701172 10.61578125 3.91152344 9.9815625 3.57617188 9.328125 C2.02936335 6.26640092 0.6084922 3.39384379 0 0 Z " fill="#A3876F" transform="translate(170,361)"/>
<path d="M0 0 C0.33 1.32 0.66 2.64 1 4 C-5.93 3.505 -5.93 3.505 -13 3 C-13.33 3.66 -13.66 4.32 -14 5 C-16.5625 5.625 -16.5625 5.625 -19 6 C-18.62724214 3.29750549 -18.21551151 2.20064865 -16.1875 0.3125 C-11.33220637 -2.60067618 -4.78398605 -3.54369337 0 0 Z M-20 6 C-18.515 6.99 -18.515 6.99 -17 8 C-17.33 8.66 -17.66 9.32 -18 10 C-18.66 9.67 -19.32 9.34 -20 9 C-20 8.01 -20 7.02 -20 6 Z " fill="#2E1F13" transform="translate(320,246)"/>
<path d="M0 0 C1.98 0.99 3.96 1.98 6 3 C6 3.66 6 4.32 6 5 C6.61488281 5.25007813 7.22976563 5.50015625 7.86328125 5.7578125 C10.36859433 7.21428336 10.9860275 8.27589622 12.1875 10.875 C12.67283203 11.89207031 12.67283203 11.89207031 13.16796875 12.9296875 C14.79355102 16.97456356 15.11444414 20.38669263 15.0625 24.75 C15.05347656 25.73484375 15.04445313 26.7196875 15.03515625 27.734375 C15.02355469 28.48203125 15.01195312 29.2296875 15 30 C14.67 30 14.34 30 14 30 C13.89042969 29.27554687 13.78085937 28.55109375 13.66796875 27.8046875 C12.76871183 22.32141361 11.70310061 17.91472839 9 13 C9 12.01 9 11.02 9 10 C7.88625 10.12375 7.88625 10.12375 6.75 10.25 C3.21842973 9.92894816 2.23369636 8.64734383 0 6 C0.66 6 1.32 6 2 6 C1.34 4.02 0.68 2.04 0 0 Z " fill="#9F6355" transform="translate(274,324)"/>
<path d="M0 0 C0.33 0 0.66 0 1 0 C2.0194278 4.38353954 2.32272655 7.06285087 0 11 C-2.8984375 12.1796875 -2.8984375 12.1796875 -6.375 12.875 C-7.51710937 13.11992187 -8.65921875 13.36484375 -9.8359375 13.6171875 C-12.7605141 13.97102516 -14.27407126 13.90669304 -17 13 C-19.33094534 12.6503582 -21.66404762 12.31445513 -24 12 C-24 11.67 -24 11.34 -24 11 C-22.76636719 10.85304688 -22.76636719 10.85304688 -21.5078125 10.703125 C-10.72763661 9.43911942 -10.72763661 9.43911942 -1 5 C-0.16916242 2.43853972 -0.16916242 2.43853972 0 0 Z " fill="#DBD1C2" transform="translate(205,269)"/>
<path d="M0 0 C1.485 0.99 1.485 0.99 3 2 C4.4540625 1.7525 4.4540625 1.7525 5.9375 1.5 C9.32991844 0.94613576 10.13171777 1.36452158 13 3 C12.09970429 4.34444159 11.17911978 5.67531438 10.25 7 C9.73953125 7.7425 9.2290625 8.485 8.703125 9.25 C7.86007813 10.11625 7.86007813 10.11625 7 11 C5.68 11 4.36 11 3 11 C2.49384702 9.73160474 1.99530901 8.46016898 1.5 7.1875 C1.2215625 6.47980469 0.943125 5.77210938 0.65625 5.04296875 C0 3 0 3 0 0 Z " fill="#D0C6B7" transform="translate(64,368)"/>
<path d="M0 0 C5.875 0.875 5.875 0.875 7 2 C7.1875 4.9375 7.1875 4.9375 7 8 C6.34 8.66 5.68 9.32 5 10 C1.875 9.625 1.875 9.625 -1 9 C-1.625 6.1875 -1.625 6.1875 -2 3 C-1.34 2.01 -0.68 1.02 0 0 Z " fill="#E6DED1" transform="translate(305,252)"/>
<path d="M0 0 C1.24162641 2.97990339 2.25561083 5.8614943 3 9 C1.42085985 9.53341184 -0.16354387 10.05125763 -1.75 10.5625 C-2.63171875 10.85253906 -3.5134375 11.14257812 -4.421875 11.44140625 C-7.07834316 12.01697435 -8.47031106 11.89248371 -11 11 C-10.34 10.67 -9.68 10.34 -9 10 C-8.67 9.01 -8.34 8.02 -8 7 C-6.35 6.67 -4.7 6.34 -3 6 C-3.33 4.35 -3.66 2.7 -4 1 C-2 0 -2 0 0 0 Z " fill="#7C4E38" transform="translate(251,390)"/>
<path d="M0 0 C2.375 0.75 2.375 0.75 3.375 1.75 C3.5625 4.6875 3.5625 4.6875 3.375 7.75 C2.715 8.41 2.055 9.07 1.375 9.75 C-1.75 9.375 -1.75 9.375 -4.625 8.75 C-5.95341008 3.31559513 -5.95341008 3.31559513 -4.5 0.8125 C-2.625 -0.25 -2.625 -0.25 0 0 Z " fill="#E3D7CA" transform="translate(181.625,252.25)"/>
<path d="M0 0 C2.125 0.375 2.125 0.375 4 1 C4 1.66 4 2.32 4 3 C4.99 3.33 5.98 3.66 7 4 C6.01 4.495 6.01 4.495 5 5 C5 5.99 5 6.98 5 8 C5.99 7.67 6.98 7.34 8 7 C8 7.99 8 8.98 8 10 C7.01 9.67 6.02 9.34 5 9 C4.67 10.32 4.34 11.64 4 13 C2.79794536 11.93283928 1.61367667 10.84561663 0.4375 9.75 C-0.22378906 9.14671875 -0.88507813 8.5434375 -1.56640625 7.921875 C-3 6 -3 6 -2.83984375 3.890625 C-2 2 -2 2 0 0 Z " fill="#E0D4C5" transform="translate(123,70)"/>
<path d="M0 0 C2.47894956 1.10175536 4.3245446 2.266293 6.4375 4 C8.91928137 5.93700009 11.04163782 6.98570439 14 8 C12.515 10.475 12.515 10.475 11 13 C8.65025719 11.68956651 6.32212918 10.35747594 4 9 C3.195625 8.54625 2.39125 8.0925 1.5625 7.625 C0 6 0 6 -0.25 2.8125 C-0.1675 1.884375 -0.085 0.95625 0 0 Z " fill="#5B412E" transform="translate(192,395)"/>
<path d="M0 0 C0 1.65 0 3.3 0 5 C-0.66 5 -1.32 5 -2 5 C-2 5.66 -2 6.32 -2 7 C-4.97 8.65 -7.94 10.3 -11 12 C-11 10.68 -11 9.36 -11 8 C-12.65 8 -14.3 8 -16 8 C-15.44570313 7.73445313 -14.89140625 7.46890625 -14.3203125 7.1953125 C-10.84330618 5.40412742 -7.56462382 3.30268955 -4.2421875 1.2421875 C-2 0 -2 0 0 0 Z " fill="#5D4432" transform="translate(306,396)"/>
<path d="M0 0 C1.32 0.66 2.64 1.32 4 2 C3.649375 2.78375 3.29875 3.5675 2.9375 4.375 C2.628125 5.24125 2.31875 6.1075 2 7 C2.33 7.66 2.66 8.32 3 9 C-0.3 9.66 -3.6 10.32 -7 11 C-5.125 5.25 -5.125 5.25 -4 3 C-3.01 3 -2.02 3 -1 3 C-0.67 2.01 -0.34 1.02 0 0 Z " fill="#E3D4C1" transform="translate(326,452)"/>
<path d="M0 0 C4.875 3.625 4.875 3.625 6 7 C4.5625 9.1875 4.5625 9.1875 3 11 C3 10.34 3 9.68 3 9 C2.01 8.67 1.02 8.34 0 8 C-1.39712274 6.04402816 -2.73779907 4.04563599 -4 2 C-2.68 1.34 -1.36 0.68 0 0 Z " fill="#EAE2D1" transform="translate(331,248)"/>
<path d="M0 0 C9.41002278 0.96355353 9.41002278 0.96355353 14 2 C13 4 13 4 11 6 C8.24627091 6.36933645 5.79634339 6.18336678 3 6 C3.66 4.68 4.32 3.36 5 2 C3.35 1.67 1.7 1.34 0 1 C0 0.67 0 0.34 0 0 Z " fill="#9D6657" transform="translate(256,319)"/>
<path d="M0 0 C1.32 0.66 2.64 1.32 4 2 C4 2.99 4 3.98 4 5 C4.99 5.66 5.98 6.32 7 7 C7.1875 9.625 7.1875 9.625 7 12 C5.0625 11.25 5.0625 11.25 3 10 C2.25 7.875 2.25 7.875 2 6 C1.34 6 0.68 6 0 6 C-1.125 2.25 -1.125 2.25 0 0 Z " fill="#513627" transform="translate(206,407)"/>
<path d="M0 0 C0 1.98 0 3.96 0 6 C-2.63250388 7.31625194 -3.80179056 6.74813658 -6.625 6.0625 C-7.44226563 5.86785156 -8.25953125 5.67320312 -9.1015625 5.47265625 C-10.04128906 5.23869141 -10.04128906 5.23869141 -11 5 C-9.68 4.34 -8.36 3.68 -7 3 C-7 2.34 -7 1.68 -7 1 C-1.125 0 -1.125 0 0 0 Z " fill="#934F3C" transform="translate(283,357)"/>
<path d="M0 0 C-1.28573642 2.57147284 -2.21354542 2.63147834 -4.875 3.5625 C-5.57367188 3.81128906 -6.27234375 4.06007813 -6.9921875 4.31640625 C-8.65929413 4.88400092 -10.32929135 5.44309712 -12 6 C-12 5.34 -12 4.68 -12 4 C-13.32 4.33 -14.64 4.66 -16 5 C-15.67 4.01 -15.34 3.02 -15 2 C-9.86308839 0.00813631 -5.47549707 -0.1921227 0 0 Z " fill="#9D6C5F" transform="translate(243,319)"/>
<path d="M0 0 C2 1.5625 2 1.5625 4 4 C4.1875 7.3125 4.1875 7.3125 4 11 C4.29692012 13.33824592 4.62020847 15.67377689 5 18 C1.6201862 13.54479089 -0.25953231 11.03012327 -0.125 5.3125 C-0.10695312 4.31863281 -0.08890625 3.32476562 -0.0703125 2.30078125 C-0.04710937 1.54152344 -0.02390625 0.78226562 0 0 Z " fill="#915E50" transform="translate(210,349)"/>
<path d="M0 0 C-1.32 0.33 -2.64 0.66 -4 1 C-3.04134491 3.33075929 -3.04134491 3.33075929 0 5 C-2.31 5.66 -4.62 6.32 -7 7 C-7 6.34 -7 5.68 -7 5 C-7.99 5 -8.98 5 -10 5 C-10 3.35 -10 1.7 -10 0 C-3.375 -1.125 -3.375 -1.125 0 0 Z " fill="#D4C8B8" transform="translate(200,137)"/>
<path d="M0 0 C0.99 0 1.98 0 3 0 C3 0.99 3 1.98 3 3 C3.66 3.33 4.32 3.66 5 4 C3.625 6 3.625 6 2 8 C1.34 8 0.68 8 0 8 C0 8.66 0 9.32 0 10 C-0.99 9.67 -1.98 9.34 -3 9 C-2.34 9 -1.68 9 -1 9 C-1.20625 7.88625 -1.4125 6.7725 -1.625 5.625 C-1.74875 4.42875 -1.8725 3.2325 -2 2 C-1.34 1.34 -0.68 0.68 0 0 Z " fill="#E1D7C5" transform="translate(323,128)"/>
<path d="M0 0 C0.66 0 1.32 0 2 0 C5.48901845 7.18052459 6.54470737 13.0412201 6 21 C5.67 21 5.34 21 5 21 C4.83564453 19.91332031 4.83564453 19.91332031 4.66796875 18.8046875 C3.76615118 13.30579989 2.65487891 8.94772888 0 4 C0 2.68 0 1.36 0 0 Z " fill="#9C6F62" transform="translate(283,333)"/>
<path d="M0 0 C0.33 1.32 0.66 2.64 1 4 C0.360625 4.268125 -0.27875 4.53625 -0.9375 4.8125 C-3.33131686 5.88667752 -3.33131686 5.88667752 -4 9 C-7 11 -7 11 -10 11 C-10.33 10.01 -10.66 9.02 -11 8 C-5.25 5 -5.25 5 -3 5 C-3 4.34 -3 3.68 -3 3 C-2.34 3 -1.68 3 -1 3 C-0.67 2.01 -0.34 1.02 0 0 Z " fill="#DED3C4" transform="translate(330,271)"/>
<path d="M0 0 C0.99 0.33 1.98 0.66 3 1 C2.01 2.485 2.01 2.485 1 4 C0.54860541 6.0492094 0.54860541 6.0492094 0.375 8.1875 C0.25125 9.445625 0.1275 10.70375 0 12 C-2.32472205 9.14693203 -3.7508258 6.45925163 -5 3 C-2.6875 1.4375 -2.6875 1.4375 0 0 Z " fill="#E1D6C8" transform="translate(165,253)"/>
<path d="M0 0 C0 1.98 0 3.96 0 6 C-4.75 7.125 -4.75 7.125 -7 6 C-6.1875 3.5625 -6.1875 3.5625 -5 1 C-2 0 -2 0 0 0 Z " fill="#EEE6DA" transform="translate(184,255)"/>
<path d="M0 0 C0.33 0.99 0.66 1.98 1 3 C-0.60320974 3.19551338 -2.20762986 3.38111983 -3.8125 3.5625 C-4.70582031 3.66691406 -5.59914063 3.77132813 -6.51953125 3.87890625 C-9 4 -9 4 -12 3 C-12 2.34 -12 1.68 -12 1 C-7.915021 0.45533613 -4.1274515 0 0 0 Z " fill="#ECE1D5" transform="translate(320,280)"/>
<path d="M0 0 C-0.33 0.99 -0.66 1.98 -1 3 C-3.64 3.33 -6.28 3.66 -9 4 C-9 3.67 -9 3.34 -9 3 C-11.31 2.67 -13.62 2.34 -16 2 C-16 1.67 -16 1.34 -16 1 C-13.8973294 0.63705686 -11.79278943 0.28493028 -9.6875 -0.0625 C-8.51574219 -0.25972656 -7.34398437 -0.45695312 -6.13671875 -0.66015625 C-3 -1 -3 -1 0 0 Z " fill="#DACFC0" transform="translate(197,279)"/>
<path d="M0 0 C0.99 0.33 1.98 0.66 3 1 C3 1.66 3 2.32 3 3 C5.475 3.99 5.475 3.99 8 5 C7.67 5.66 7.34 6.32 7 7 C4.4375 7.625 4.4375 7.625 2 8 C0.23537317 4.91190305 0 3.76687864 0 0 Z " fill="#ECE4D5" transform="translate(325,242)"/>
<path d="M0 0 C1.32 0.66 2.64 1.32 4 2 C3.67 2.99 3.34 3.98 3 5 C2.65772583 6.33106622 2.32248257 7.66400079 2 9 C2.66 9 3.32 9 4 9 C4.33 9.99 4.66 10.98 5 12 C2.59071265 11.03628506 1.23992991 10.34789837 -0.25 8.1875 C-1.11937375 5.65182656 -1.21595212 3.66340949 -1 1 C-0.67 0.67 -0.34 0.34 0 0 Z " fill="#B4ACA1" transform="translate(73,211)"/>
<path d="M0 0 C2.97 1.98 2.97 1.98 6 4 C4.8125 5.5 4.8125 5.5 3 7 C0.3125 7.1875 0.3125 7.1875 -2 7 C-1.125 2.25 -1.125 2.25 0 0 Z " fill="#C1B6A9" transform="translate(393,409)"/>
<path d="M0 0 C-1.485 2.475 -1.485 2.475 -3 5 C-4.98 4.01 -6.96 3.02 -9 2 C-9 1.34 -9 0.68 -9 0 C-5.93109813 -1.53445094 -3.29905734 -0.54984289 0 0 Z " fill="#533A2A" transform="translate(206,403)"/>
<path d="M0 0 C0.33 0.66 0.66 1.32 1 2 C0.505 2.53625 0.01 3.0725 -0.5 3.625 C-2.37489544 6.59358445 -2.23501425 8.55312427 -2 12 C-4.31 11.67 -6.62 11.34 -9 11 C-8.60167969 10.54109375 -8.20335937 10.0821875 -7.79296875 9.609375 C-5.08857938 6.47728415 -2.42008229 3.36122541 0 0 Z " fill="#EFE4D7" transform="translate(313,391)"/>
<path d="M0 0 C-0.4793247 4.31392226 -1.7457985 6.16569547 -5 9 C-5 7.68 -5 6.36 -5 5 C-5.66 4.67 -6.32 4.34 -7 4 C-3.375 0 -3.375 0 0 0 Z " fill="#987C63" transform="translate(311,391)"/>
<path d="M0 0 C0.33 0.99 0.66 1.98 1 3 C3.64 3.33 6.28 3.66 9 4 C9 5.98 9 7.96 9 10 C8.34 9.67 7.68 9.34 7 9 C7.33 7.68 7.66 6.36 8 5 C2.06 5.495 2.06 5.495 -4 6 C-2.68 4.02 -1.36 2.04 0 0 Z " fill="#DFC5B0" transform="translate(366,146)"/>
<path d="M0 0 C1.98 0.495 1.98 0.495 4 1 C4.33 3.31 4.66 5.62 5 8 C3.125 7.6875 3.125 7.6875 1 7 C-1 4 -1 4 -0.625 1.8125 C-0.41875 1.214375 -0.2125 0.61625 0 0 Z " fill="#9F7B61" transform="translate(180,378)"/>
<path d="M0 0 C0.99 0.33 1.98 0.66 3 1 C3.6875 3.0625 3.6875 3.0625 4 5 C1.8535247 4.88655624 -0.29220592 4.75893655 -2.4375 4.625 C-3.63246094 4.55539063 -4.82742188 4.48578125 -6.05859375 4.4140625 C-7.02925781 4.27742187 -7.99992187 4.14078125 -9 4 C-9.33 3.34 -9.66 2.68 -10 2 C-8.68 1.67 -7.36 1.34 -6 1 C-6 1.66 -6 2.32 -6 3 C-2.75016865 1.91215032 -2.75016865 1.91215032 0 0 Z " fill="#29170A" transform="translate(317,245)"/>
<path d="M0 0 C0.33 0 0.66 0 1 0 C1 2.31 1 4.62 1 7 C-3.75 8.125 -3.75 8.125 -6 7 C-6 6.34 -6 5.68 -6 5 C-4.02 4.34 -2.04 3.68 0 3 C0 2.01 0 1.02 0 0 Z " fill="#AE6D57" transform="translate(222,351)"/>
<path d="M0 0 C0.33 1.98 0.66 3.96 1 6 C0.34 6 -0.32 6 -1 6 C-1.33 5.34 -1.66 4.68 -2 4 C-2.99 5.485 -2.99 5.485 -4 7 C-4.99 7 -5.98 7 -7 7 C-7 5.35 -7 3.7 -7 2 C-6.01 2.33 -5.02 2.66 -4 3 C-4 2.34 -4 1.68 -4 1 C-1 0 -1 0 0 0 Z " fill="#C3BBB0" transform="translate(66,321)"/>
<path d="M0 0 C0.99 0 1.98 0 3 0 C3 2.64 3 5.28 3 8 C2.01 8.495 2.01 8.495 1 9 C-0.625 6.75 -0.625 6.75 -2 4 C-1.1875 1.6875 -1.1875 1.6875 0 0 Z " fill="#302217" transform="translate(330,258)"/>
<path d="M0 0 C2 4 2 4 3 7 C2.67 7.99 2.34 8.98 2 10 C1.77820215 11.89212737 1.59385985 13.78884472 1.4375 15.6875 C1.35371094 16.68136719 1.26992187 17.67523438 1.18359375 18.69921875 C1.12300781 19.45847656 1.06242187 20.21773437 1 21 C0.67 21 0.34 21 0 21 C0 14.07 0 7.14 0 0 Z " fill="#A19692" transform="translate(74,139)"/>
<path d="M0 0 C1.65 0 3.3 0 5 0 C4.67 1.32 4.34 2.64 4 4 C3.34 4 2.68 4 2 4 C2 5.65 2 7.3 2 9 C1.34 9 0.68 9 0 9 C0 6.03 0 3.06 0 0 Z " fill="#E8CDBC" transform="translate(251,385)"/>
<path d="M0 0 C0.33 0.66 0.66 1.32 1 2 C-0.07353741 3.4655595 -1.1592554 4.92220152 -2.25 6.375 C-2.85328125 7.18710938 -3.4565625 7.99921875 -4.078125 8.8359375 C-5.97181904 10.96826778 -7.38328518 11.94636704 -10 13 C-8.48446596 9.52224821 -6.4226544 7.0442016 -3.875 4.25 C-3.15054687 3.45078125 -2.42609375 2.6515625 -1.6796875 1.828125 C-0.84824219 0.92320313 -0.84824219 0.92320313 0 0 Z " fill="#F3ECDF" transform="translate(341,117)"/>
<path d="M0 0 C2.31332186 2.83907682 4.10457877 5.41831508 5 9 C3.625 11.3125 3.625 11.3125 2 13 C-0.28571429 4.57142857 -0.28571429 4.57142857 0 0 Z " fill="#B3ACA3" transform="translate(78,370)"/>
<path d="M0 0 C0.99 0.495 0.99 0.495 2 1 C1.01 1.495 1.01 1.495 0 2 C0 1.34 0 0.68 0 0 Z M-2 2 C-1.34 2 -0.68 2 0 2 C0 3.32 0 4.64 0 6 C-2.5 8.25 -2.5 8.25 -5 10 C-5.66 9.67 -6.32 9.34 -7 9 C-6.21654285 7.82780457 -5.42297164 6.66236332 -4.625 5.5 C-4.18414062 4.8503125 -3.74328125 4.200625 -3.2890625 3.53125 C-2.65097656 2.77328125 -2.65097656 2.77328125 -2 2 Z " fill="#392B1D" transform="translate(173,247)"/>
<path d="M0 0 C1.65 0.33 3.3 0.66 5 1 C3.8125 3 3.8125 3 2 5 C-0.6875 5.25 -0.6875 5.25 -3 5 C-2.01 3.35 -1.02 1.7 0 0 Z " fill="#E8DDCE" transform="translate(198,276)"/>
<path d="M0 0 C2 3 2 3 2 5 C0.02 5.99 -1.96 6.98 -4 8 C-4.33 7.01 -4.66 6.02 -5 5 C-4.34 5 -3.68 5 -3 5 C-2.5359375 4.0409375 -2.5359375 4.0409375 -2.0625 3.0625 C-1 1 -1 1 0 0 Z " fill="#EBE3D6" transform="translate(166,248)"/>
<path d="M0 0 C2.125 0.9375 2.125 0.9375 4 2 C4 2.66 4 3.32 4 4 C3.030625 4.12375 2.06125 4.2475 1.0625 4.375 C-0.4534375 4.684375 -0.4534375 4.684375 -2 5 C-2.33 5.66 -2.66 6.32 -3 7 C-3.33 5.68 -3.66 4.36 -4 3 C-3.34 3 -2.68 3 -2 3 C-2 2.34 -2 1.68 -2 1 C-1.34 0.67 -0.68 0.34 0 0 Z " fill="#F4E3D1" transform="translate(374,177)"/>
<path d="M0 0 C0.66 0.66 1.32 1.32 2 2 C-1.625 5 -1.625 5 -5 5 C-5 5.66 -5 6.32 -5 7 C-5.66 6.67 -6.32 6.34 -7 6 C-7 5.01 -7 4.02 -7 3 C-6.01 3 -5.02 3 -4 3 C-4 2.34 -4 1.68 -4 1 C-2.125 0.375 -2.125 0.375 0 0 Z " fill="#C0B8AB" transform="translate(311,458)"/>
<path d="M0 0 C0.99 0 1.98 0 3 0 C1.66666667 3.33333333 0.33333333 6.66666667 -1 10 C-1.66 10 -2.32 10 -3 10 C-2.69201674 8.51988629 -2.378482 7.04092675 -2.0625 5.5625 C-1.88847656 4.73878906 -1.71445312 3.91507812 -1.53515625 3.06640625 C-1 1 -1 1 0 0 Z " fill="#F3E8D9" transform="translate(315,371)"/>
<path d="M0 0 C2 2 2 2 2.1953125 3.9453125 C2.13020833 5.96354167 2.06510417 7.98177083 2 10 C1.7525 9.38125 1.505 8.7625 1.25 8.125 C-0.20628639 5.64931313 -1.37812506 5.04874998 -4 4 C-4 3.34 -4 2.68 -4 2 C-2.68 1.34 -1.36 0.68 0 0 Z " fill="#3F2D1E" transform="translate(184,248)"/>
<path d="M0 0 C0.33 0 0.66 0 1 0 C1 1.65 1 3.3 1 5 C1.66 5.33 2.32 5.66 3 6 C1.68 7.65 0.36 9.3 -1 11 C-2.32 10.34 -3.64 9.68 -5 9 C-4.01 8.67 -3.02 8.34 -2 8 C-2 7.34 -2 6.68 -2 6 C-1.34 6 -0.68 6 0 6 C0 4.02 0 2.04 0 0 Z " fill="#C7BDB1" transform="translate(80,201)"/>
<path d="M0 0 C0.66 0.33 1.32 0.66 2 1 C0.59645587 4.50886032 -0.64365823 5.4267148 -4 7 C-4.99 8.485 -4.99 8.485 -6 10 C-6.99 9.34 -7.98 8.68 -9 8 C-4.25 4 -4.25 4 -2 4 C-2 3.34 -2 2.68 -2 2 C-1.34 2 -0.68 2 0 2 C0 1.34 0 0.68 0 0 Z " fill="#A8A198" transform="translate(326,123)"/>
<path d="M0 0 C0.99 0.66 1.98 1.32 3 2 C1.68 4.64 0.36 7.28 -1 10 C-1.99 9.34 -2.98 8.68 -4 8 C-3.2884375 7.13375 -3.2884375 7.13375 -2.5625 6.25 C-1.0515133 4.07417916 -0.45963849 2.57397552 0 0 Z " fill="#BCB5A5" transform="translate(412,389)"/>
<path d="M0 0 C1.3921875 0.3403125 1.3921875 0.3403125 2.8125 0.6875 C2.4825 2.0075 2.1525 3.3275 1.8125 4.6875 C-0.8275 4.0275 -3.4675 3.3675 -6.1875 2.6875 C-4.14987265 -0.14253799 -3.59070275 -0.35202968 0 0 Z " fill="#DBD1C2" transform="translate(193.1875,242.3125)"/>
<path d="M0 0 C6.59090909 3.18181818 6.59090909 3.18181818 8 6 C5 7 5 7 2 6 C2 5.34 2 4.68 2 4 C1.34 4 0.68 4 0 4 C-0.33 3.01 -0.66 2.02 -1 1 C-0.67 0.67 -0.34 0.34 0 0 Z " fill="#CEC0B3" transform="translate(80,224)"/>
<path d="M0 0 C0.99 0.33 1.98 0.66 3 1 C2.01 2.485 2.01 2.485 1 4 C0.34 4 -0.32 4 -1 4 C-1 4.66 -1 5.32 -1 6 C-2.375 7.625 -2.375 7.625 -4 9 C-4.66 9 -5.32 9 -6 9 C-4.79618552 6.50638429 -3.54571278 4.31856917 -2 2 C-1.34 2 -0.68 2 0 2 C0 1.34 0 0.68 0 0 Z " fill="#CAC3B6" transform="translate(362,80)"/>
<path d="M0 0 C0.99 0.33 1.98 0.66 3 1 C2.67 1.66 2.34 2.32 2 3 C3.98 3 5.96 3 8 3 C8 3.33 8 3.66 8 4 C4.7 4.66 1.4 5.32 -2 6 C-1.34 4.02 -0.68 2.04 0 0 Z " fill="#B6AFA0" transform="translate(321,457)"/>
<path d="M0 0 C0.66 0.66 1.32 1.32 2 2 C1.21448343 3.31618998 0.4213763 4.62785228 -0.375 5.9375 C-0.81585938 6.66839844 -1.25671875 7.39929688 -1.7109375 8.15234375 C-3 10 -3 10 -5 11 C-4.32902328 6.80639551 -2.1441606 3.59665648 0 0 Z " fill="#C99992" transform="translate(281,435)"/>
<path d="M0 0 C0 1.32 0 2.64 0 4 C-4.55384615 4.36923077 -4.55384615 4.36923077 -6.8125 2.5 C-7.4003125 1.7575 -7.4003125 1.7575 -8 1 C-5.23735711 0.40267181 -2.83967231 0 0 0 Z " fill="#7F4D3A" transform="translate(282,405)"/>
<path d="M0 0 C-0.33 0.99 -0.66 1.98 -1 3 C-0.34 3.66 0.32 4.32 1 5 C-0.65 5.33 -2.3 5.66 -4 6 C-4.33 5.34 -4.66 4.68 -5 4 C-4.67 3.34 -4.34 2.68 -4 2 C-4.66 1.67 -5.32 1.34 -6 1 C-3 0 -3 0 0 0 Z " fill="#936351" transform="translate(233,401)"/>
<path d="M0 0 C1.65 0 3.3 0 5 0 C1.25 5.875 1.25 5.875 -1 7 C-0.67 4.69 -0.34 2.38 0 0 Z " fill="#C2B4A5" transform="translate(404,401)"/>
<path d="M0 0 C0.66 0.33 1.32 0.66 2 1 C0 4 -2 7 -4 10 C-5 7 -5 7 -3.6875 3.875 C-2 1 -2 1 0 0 Z " fill="#9C8268" transform="translate(324,361)"/>
<path d="M0 0 C0 0.99 0 1.98 0 3 C-3.375 3.125 -3.375 3.125 -7 3 C-7.66 2.34 -8.32 1.68 -9 1 C-2.25 -1.125 -2.25 -1.125 0 0 Z " fill="#E3D3C5" transform="translate(213,401)"/>
<path d="M0 0 C2.31 0.66 4.62 1.32 7 2 C5.625 4 5.625 4 4 6 C3.34 6 2.68 6 2 6 C2 5.34 2 4.68 2 4 C1.34 3.67 0.68 3.34 0 3 C0 2.01 0 1.02 0 0 Z " fill="#E3D9CA" transform="translate(271,129)"/>
<path d="M0 0 C2.4375 1 2.4375 1 4 2 C2.02 2.66 0.04 3.32 -2 4 C-2.33 3.34 -2.66 2.68 -3 2 C-5.31 2 -7.62 2 -10 2 C-6.29873141 -0.46751239 -4.37776468 -0.30721156 0 0 Z " fill="#F4EBDD" transform="translate(396,68)"/>
<path d="M0 0 C1.6498275 0.42218816 3.29483665 0.86324425 4.9375 1.3125 C6.31228516 1.67794922 6.31228516 1.67794922 7.71484375 2.05078125 C8.46894531 2.36402344 9.22304687 2.67726563 10 3 C10.33 3.99 10.66 4.98 11 6 C6.95743617 4.77782954 3.50711041 3.37245704 0 1 C0 0.67 0 0.34 0 0 Z " fill="#CDA199" transform="translate(225,449)"/>
<path d="M0 0 C-1 2 -1 2 -3.8125 3.1875 C-6.97904018 3.9946573 -8.01517795 3.91292822 -11 3 C-9.73581754 2.30034557 -8.46334598 1.61565237 -7.1875 0.9375 C-6.47980469 0.55464844 -5.77210938 0.17179687 -5.04296875 -0.22265625 C-3 -1 -3 -1 0 0 Z " fill="#855F4A" transform="translate(249,395)"/>
<path d="M0 0 C2.475 0.495 2.475 0.495 5 1 C5 1.66 5 2.32 5 3 C5.66 3 6.32 3 7 3 C6.67 3.99 6.34 4.98 6 6 C5.34 6 4.68 6 4 6 C2.61061923 4.03852126 1.2739589 2.03833424 0 0 Z " fill="#D6CCBB" transform="translate(327,250)"/>
<path d="M0 0 C0.33 0 0.66 0 1 0 C1.24887295 2.10192697 1.4734719 4.20673964 1.6875 6.3125 C1.81511719 7.48425781 1.94273437 8.65601563 2.07421875 9.86328125 C2 13 2 13 -1 16 C-0.67 10.72 -0.34 5.44 0 0 Z " fill="#DFD6C7" transform="translate(415,161)"/>
<path d="M0 0 C0.66 0.33 1.32 0.66 2 1 C0.6875 3.5 0.6875 3.5 -1 6 C-1.99 6 -2.98 6 -4 6 C-4.33 5.34 -4.66 4.68 -5 4 C-3.35 2.68 -1.7 1.36 0 0 Z " fill="#DDD5CB" transform="translate(378,65)"/>
<path d="M0 0 C0.66 0 1.32 0 2 0 C2.99 2.64 3.98 5.28 5 8 C4.01 8.495 4.01 8.495 3 9 C0 3.375 0 3.375 0 0 Z " fill="#F2EAD7" transform="translate(184,378)"/>
<path d="M0 0 C0.66 0 1.32 0 2 0 C2 3.63 2 7.26 2 11 C1.67 11 1.34 11 1 11 C0.67 8.69 0.34 6.38 0 4 C-0.66 4 -1.32 4 -2 4 C-1.34 2.68 -0.68 1.36 0 0 Z " fill="#B3ADA1" transform="translate(435,346)"/>
<path d="M0 0 C6.15234375 0.5859375 6.15234375 0.5859375 8 1 C8.33 1.66 8.66 2.32 9 3 C7.68 3 6.36 3 5 3 C5 3.99 5 4.98 5 6 C4.34 6 3.68 6 3 6 C2.01 4.02 1.02 2.04 0 0 Z " fill="#EAE0D3" transform="translate(406,255)"/>
<path d="M0 0 C0.33 1.32 0.66 2.64 1 4 C0.21625 4.61875 -0.5675 5.2375 -1.375 5.875 C-3.96837647 7.89858661 -3.96837647 7.89858661 -6 10 C-6 6.41087588 -5.33563446 5.89142971 -3 3.3125 C-2.443125 2.68988281 -1.88625 2.06726563 -1.3125 1.42578125 C-0.879375 0.95527344 -0.44625 0.48476562 0 0 Z " fill="#F5E6D6" transform="translate(127,181)"/>
<path d="M0 0 C0.66 0.33 1.32 0.66 2 1 C1.67 1.639375 1.34 2.27875 1 2.9375 C-0.07271225 4.76794567 -0.07271225 4.76794567 0 6 C-1.65 6 -3.3 6 -5 6 C-3.63016497 2.83884224 -3.0109362 2.0072908 0 0 Z " fill="#DCC8B6" transform="translate(363,165)"/>
<path d="M0 0 C1.65 1.65 3.3 3.3 5 5 C4.67 5.66 4.34 6.32 4 7 C1.525 6.01 1.525 6.01 -1 5 C-0.67 3.35 -0.34 1.7 0 0 Z " fill="#E1D2C8" transform="translate(143,90)"/>
<path d="M0 0 C0.66 0.33 1.32 0.66 2 1 C1.3503125 1.5878125 1.3503125 1.5878125 0.6875 2.1875 C-1.13582629 4.01796997 -1.13582629 4.01796997 -2.5625 6.625 C-4 9 -4 9 -6 10 C-4.6302836 6.00499382 -2.74277578 3.19990508 0 0 Z " fill="#C7BFB7" transform="translate(92,64)"/>
<path d="M0 0 C0.99 0.33 1.98 0.66 3 1 C1.25 5.875 1.25 5.875 -1 7 C-1.625 5.1875 -1.625 5.1875 -2 3 C-1.34 2.01 -0.68 1.02 0 0 Z " fill="#B4AC9A" transform="translate(383,421)"/>
<path d="M0 0 C0.33 0 0.66 0 1 0 C1.36625971 4.51720311 1.36625971 4.51720311 -0.375 6.8125 C-2 8 -2 8 -4 8 C-2.87548273 5.0280615 -1.77706209 2.66559313 0 0 Z " fill="#EADED3" transform="translate(293,409)"/>
<path d="M0 0 C1.61949011 2.57213134 2.04408751 3.67669159 1.625 6.75 C1.41875 7.4925 1.2125 8.235 1 9 C0.67 8.01 0.34 7.02 0 6 C-0.99 5.67 -1.98 5.34 -3 5 C-2.01 3.35 -1.02 1.7 0 0 Z " fill="#A28A74" transform="translate(311,385)"/>
<path d="M0 0 C1.32 0.33 2.64 0.66 4 1 C4 2.32 4 3.64 4 5 C2.68 5.33 1.36 5.66 0 6 C0 4.02 0 2.04 0 0 Z " fill="#845845" transform="translate(247,385)"/>
<path d="M0 0 C1.65 0 3.3 0 5 0 C3.35 1.98 1.7 3.96 0 6 C-1.125 2.25 -1.125 2.25 0 0 Z " fill="#A9634E" transform="translate(271,366)"/>
<path d="M0 0 C1.0625 1.8125 1.0625 1.8125 2 4 C1.67 4.99 1.34 5.98 1 7 C1.66 7.33 2.32 7.66 3 8 C1.68 8 0.36 8 -1 8 C-1.125 2.25 -1.125 2.25 0 0 Z " fill="#CCC6B9" transform="translate(62,268)"/>
<path d="M0 0 C0.66 0 1.32 0 2 0 C2 1.98 2 3.96 2 6 C1.01 5.67 0.02 5.34 -1 5 C-1 5.66 -1 6.32 -1 7 C-1.66 6.67 -2.32 6.34 -3 6 C-2.01 4.02 -1.02 2.04 0 0 Z " fill="#D4CBBE" transform="translate(69,252)"/>
<path d="M0 0 C1.65 0 3.3 0 5 0 C5.33 0.99 5.66 1.98 6 3 C5.67 3.66 5.34 4.32 5 5 C3.0625 4.1875 3.0625 4.1875 1 3 C0.67 2.01 0.34 1.02 0 0 Z " fill="#D1B8A1" transform="translate(371,181)"/>
<path d="M0 0 C-2.12780579 2.34058637 -4.11562221 3.70700306 -7 5 C-6.67 3.35 -6.34 1.7 -6 0 C-3 -1 -3 -1 0 0 Z " fill="#A8A193" transform="translate(337,454)"/>
<path d="M0 0 C0.66 0.33 1.32 0.66 2 1 C1.67 1.66 1.34 2.32 1 3 C1.99 3.66 2.98 4.32 4 5 C1.69 5 -0.62 5 -3 5 C-1.125 1.125 -1.125 1.125 0 0 Z " fill="#F7E6D1" transform="translate(123,176)"/>
<path d="M0 0 C6.4 -0.36923077 6.4 -0.36923077 9.4375 1.5 C9.953125 1.995 10.46875 2.49 11 3 C9.02 3 7.04 3 5 3 C5 2.34 5 1.68 5 1 C3.35 1 1.7 1 0 1 C0 0.67 0 0.34 0 0 Z " fill="#86837B" transform="translate(391,59)"/>
</svg>
